<svg viewBox="0 0 20 20" fill="currentcolor">
  <path d="M9.11493 0.364924L2.74993 6.72992C2.54999 6.96852 2.44627 7.27314 2.45907 7.58417C2.47186 7.8952 2.60025 8.19026 2.81912 8.41163C3.03798 8.63299 3.33157 8.76473 3.64243 8.78106C3.9533 8.79739 4.25907 8.69714 4.49993 8.49992L8.74993 4.26992V18.7699C8.74993 19.1014 8.88162 19.4194 9.11604 19.6538C9.35046 19.8882 9.66841 20.0199 9.99993 20.0199C10.3314 20.0199 10.6494 19.8882 10.8838 19.6538C11.1182 19.4194 11.2499 19.1014 11.2499 18.7699V4.26992L15.4999 8.49992C15.7346 8.73464 16.053 8.8665 16.3849 8.8665C16.7169 8.8665 17.0352 8.73464 17.2699 8.49992C17.5046 8.26521 17.6365 7.94686 17.6365 7.61492C17.6365 7.28298 17.5046 6.96464 17.2699 6.72992L10.8849 0.364924C10.6498 0.131043 10.3316 -0.000244141 9.99993 -0.000244141C9.66826 -0.000244141 9.35009 0.131043 9.11493 0.364924Z"/>
</svg>
