<svg viewBox="0 0 20 20">
  <path d="M10.8849 19.635L17.2499 13.27C17.3846 13.1598 17.4947 13.0226 17.5733 12.8674C17.6519 12.7121 17.6972 12.5422 17.7063 12.3684C17.7154 12.1947 17.6882 12.0209 17.6263 11.8583C17.5644 11.6957 17.4692 11.5477 17.3469 11.424C17.2246 11.3003 17.0777 11.2034 16.9158 11.1397C16.7539 11.076 16.5805 11.0468 16.4066 11.0539C16.2328 11.0611 16.0623 11.1044 15.9062 11.1813C15.7501 11.2581 15.6117 11.3666 15.4999 11.5L11.2499 15.73V1.25C11.2499 0.918479 11.1182 0.600537 10.8838 0.366117C10.6494 0.131696 10.3314 0 9.99993 0C9.66841 0 9.35046 0.131696 9.11604 0.366117C8.88162 0.600537 8.74993 0.918479 8.74993 1.25V15.75L4.49993 11.5C4.25907 11.3028 3.9533 11.2025 3.64243 11.2189C3.33157 11.2352 3.03798 11.3669 2.81912 11.5883C2.60025 11.8097 2.47186 12.1047 2.45907 12.4158C2.44627 12.7268 2.54999 13.0314 2.74993 13.27L9.11493 19.635C9.35009 19.8689 9.66826 20.0002 9.99993 20.0002C10.3316 20.0002 10.6498 19.8689 10.8849 19.635Z"/>
</svg>
