<svg viewBox="0 0 20 20" fill="currentcolor">
  <path d="M9.96008 14.755C9.79577 14.7556 9.63298 14.7236 9.48109 14.661C9.3292 14.5983 9.19121 14.5062 9.07508 14.39L1.57508 6.89C1.34036 6.65528 1.2085 6.33694 1.2085 6.005C1.2085 5.67306 1.34036 5.35471 1.57508 5.12C1.80979 4.88528 2.12814 4.75342 2.46008 4.75342C2.79201 4.75342 3.11036 4.88528 3.34508 5.12L9.96008 11.74L16.5751 5.12C16.8098 4.88528 17.1281 4.75342 17.4601 4.75342C17.792 4.75342 18.1104 4.88528 18.3451 5.12C18.5798 5.35471 18.7117 5.67306 18.7117 6.005C18.7117 6.33694 18.5798 6.65528 18.3451 6.89L10.8451 14.39C10.7289 14.5062 10.591 14.5983 10.4391 14.661C10.2872 14.7236 10.1244 14.7556 9.96008 14.755Z"/>
</svg>
