<svg viewBox="0 0 20 20">
  <path d="M18.75 2H1.25C0.918479 2 0.600537 2.1317 0.366117 2.36612C0.131696 2.60054 0 2.91848 0 3.25L0 16.75C0 17.0815 0.131696 17.3995 0.366117 17.6339C0.600537 17.8683 0.918479 18 1.25 18H18.75C19.0815 18 19.3995 17.8683 19.6339 17.6339C19.8683 17.3995 20 17.0815 20 16.75V3.25C20 2.91848 19.8683 2.60054 19.6339 2.36612C19.3995 2.1317 19.0815 2 18.75 2ZM17.46 4.5L10 10.405L2.54 4.5H17.46ZM2.5 15.5V7.66L9.225 13C9.44531 13.1752 9.7185 13.2706 10 13.2706C10.2815 13.2706 10.5547 13.1752 10.775 13L17.5 7.66V15.5H2.5Z"/>
</svg>
