<svg width="350" height="350" viewBox="0 0 350 350" fill="none" xmlns="http://www.w3.org/2000/svg">
<rect width="350" height="350" fill="white"/>
<path d="M332.813 214.139C328.433 212.124 323.565 211.414 318.79 212.098C314.018 212.779 309.542 214.822 305.901 217.982C305.299 218.514 304.375 217.782 304.375 217.118V132.882C304.37 129.755 303.128 126.759 300.919 124.55C298.707 122.341 295.711 121.097 292.588 121.095C289.765 121.075 287.036 122.093 284.913 123.953C282.827 125.734 280.271 126.88 277.552 127.246C274.83 127.614 272.062 127.19 269.579 126.028C266.246 124.488 263.63 121.73 262.271 118.32C260.911 114.909 260.911 111.107 262.271 107.697C263.628 104.287 266.244 101.529 269.577 99.9888C272.063 98.8265 274.83 98.4029 277.549 98.7687C280.269 99.1369 282.824 100.28 284.911 102.063C287.033 103.924 289.765 104.942 292.588 104.922C295.711 104.92 298.708 103.676 300.919 101.466C303.128 99.2572 304.37 96.261 304.375 93.1352V51.0158C304.375 48.0389 301.961 45.6251 298.984 45.6251H256.865C256.21 45.6251 255.464 44.6962 255.998 44.0993H256.001C259.161 40.4582 261.204 35.9819 261.885 31.2098C262.568 26.4352 261.858 21.5669 259.844 17.1866C257.163 11.3146 252.321 6.69911 246.329 4.29949C240.334 1.90017 233.646 1.90017 227.654 4.29949C221.659 6.6988 216.82 11.3148 214.138 17.1866C212.122 21.5689 211.414 26.4376 212.095 31.2098C212.779 35.9844 214.822 40.4608 217.984 44.1018C218.518 44.7034 217.782 45.6252 217.118 45.6252H132.882C129.758 45.6276 126.762 46.8717 124.55 49.081C122.341 51.2902 121.099 54.2864 121.094 57.4122C121.075 60.2327 122.093 62.9641 123.953 65.0867C125.737 67.1732 126.88 69.729 127.248 72.4482C127.616 75.1676 127.193 77.9376 126.028 80.4209C124.49 83.754 121.73 86.3699 118.32 87.7294C114.909 89.089 111.107 89.0891 107.697 87.7294C104.287 86.3697 101.529 83.7538 99.9888 80.4209C98.824 77.9373 98.4005 75.1674 98.7686 72.4482C99.1368 69.7288 100.282 67.1731 102.066 65.0867C103.926 62.9641 104.941 60.2327 104.922 57.4122C104.917 54.2861 103.676 51.2899 101.466 49.081C99.2548 46.8718 96.2586 45.6276 93.1351 45.6252H51.0158C48.0389 45.6252 45.6251 48.039 45.6251 51.0159V93.1352C45.6251 93.6912 45.1727 94.1412 44.6192 94.1412C44.4339 94.1508 44.251 94.1027 44.0993 93.9992C40.4558 90.8394 35.9794 88.7986 31.2073 88.1152C26.4351 87.4341 21.5669 88.1416 17.1866 90.1559C11.3122 92.8392 6.69911 97.6788 4.29949 103.671C1.90017 109.666 1.90017 116.354 4.29949 122.346C6.6988 128.341 11.3148 133.18 17.1866 135.861C21.5665 137.876 26.4352 138.583 31.2073 137.902C35.9794 137.221 40.4559 135.18 44.0969 132.021C44.2509 131.917 44.4338 131.864 44.6191 131.876C45.1726 131.876 45.625 132.326 45.625 132.882V217.118C45.6298 220.245 46.8716 223.241 49.0809 225.45C51.2924 227.659 54.2886 228.903 57.4121 228.905C60.2349 228.925 62.964 227.907 65.0866 226.047C67.173 224.263 69.7288 223.12 72.4481 222.752C75.1699 222.384 77.9374 222.807 80.4207 223.972C83.7538 225.512 86.3697 228.27 87.7293 231.68C89.0888 235.091 89.0889 238.893 87.7293 242.303C86.372 245.713 83.7561 248.471 80.4232 250.011C77.9372 251.176 75.1697 251.6 72.4505 251.231C69.7311 250.863 67.1754 249.72 65.089 247.937C62.9664 246.077 60.235 245.058 57.4121 245.078C54.2884 245.08 51.2922 246.324 49.0809 248.534C46.8717 250.743 45.6298 253.739 45.625 256.865V298.984C45.625 301.961 48.0388 304.375 51.0157 304.375H93.1351C93.6886 304.375 94.141 304.825 94.141 305.381C94.1507 305.564 94.1001 305.747 93.999 305.901C90.8392 309.542 88.7937 314.018 88.1126 318.79C87.4315 323.565 88.1391 328.433 90.1558 332.813C92.8367 338.685 97.6762 343.301 103.671 345.7C109.664 348.1 116.351 348.1 122.346 345.7C128.338 343.301 133.18 338.685 135.861 332.813C137.876 328.433 138.586 323.565 137.902 318.79C137.221 314.018 135.178 309.542 132.018 305.901C131.915 305.747 131.866 305.564 131.876 305.381C131.876 304.825 132.329 304.375 132.882 304.375H217.118C220.242 304.372 223.238 303.128 225.45 300.919C227.659 298.71 228.901 295.714 228.905 292.588C228.925 289.767 227.907 287.036 226.046 284.913C224.263 282.827 223.12 280.271 222.752 277.552C222.384 274.832 222.807 272.062 223.972 269.579C225.51 266.246 228.27 263.63 231.68 262.271C235.091 260.911 238.893 260.911 242.303 262.271C245.713 263.63 248.471 266.246 250.011 269.579C251.176 272.063 251.599 274.833 251.231 277.552C250.863 280.271 249.718 282.827 247.934 284.913C246.074 287.036 245.058 289.767 245.078 292.588C245.082 295.714 246.324 298.71 248.533 300.919C250.745 303.128 253.741 304.372 256.865 304.375H298.984C301.961 304.375 304.375 301.961 304.375 298.984V256.865C304.375 256.208 305.304 255.464 305.901 256.001C309.544 259.161 314.018 261.204 318.79 261.885C323.565 262.568 328.433 261.858 332.813 259.844C338.685 257.163 343.301 252.324 345.7 246.329C348.1 240.336 348.1 233.649 345.7 227.654C343.301 221.662 338.688 216.822 332.813 214.139V214.139ZM180.389 56.4041H217.118C220.242 56.4017 223.238 55.1576 225.449 52.9483C227.659 50.7391 228.9 47.7429 228.905 44.6171C228.924 41.7966 227.907 39.0652 226.046 36.9426C224.263 34.8561 223.12 32.3003 222.752 29.5811C222.383 26.8617 222.807 24.0917 223.972 21.6084C225.51 18.2753 228.27 15.6595 231.68 14.2999C235.09 12.9403 238.893 12.9402 242.303 14.2999C245.713 15.6596 248.471 18.2755 250.011 21.6084C251.176 24.092 251.599 26.8619 251.231 29.5811C250.863 32.3005 249.717 34.8563 247.934 36.9426C246.074 39.0652 245.058 41.7966 245.078 44.6171C245.082 47.7432 246.324 50.7394 248.533 52.9483C250.745 55.1575 253.741 56.4017 256.865 56.4041H293.593V93.1328C293.593 93.7802 292.657 94.519 292.067 93.9968C288.424 90.837 283.948 88.7962 279.175 88.1127C274.403 87.4317 269.535 88.1416 265.155 90.1535C259.28 92.8368 254.667 97.6764 252.268 103.669C249.868 109.664 249.868 116.352 252.268 122.344C254.667 128.338 259.283 133.178 265.155 135.859C269.535 137.873 274.403 138.583 279.175 137.9C283.948 137.219 288.424 135.178 292.065 132.018C292.664 131.486 293.593 132.203 293.593 132.88V169.608H256.865C253.738 169.608 250.74 170.85 248.531 173.062C246.319 175.273 245.077 178.272 245.077 181.398C245.058 184.218 246.076 186.95 247.934 189.07C249.717 191.156 250.863 193.712 251.231 196.432C251.599 199.151 251.176 201.921 250.011 204.404C248.273 208.178 244.988 211.013 241.003 212.182C237.018 213.349 232.722 212.736 229.223 210.495C225.726 208.257 223.368 204.614 222.759 200.505C222.15 196.397 223.349 192.227 226.049 189.07C227.909 186.947 228.925 184.216 228.906 181.395C228.901 178.269 227.659 175.273 225.45 173.064C223.238 170.855 220.242 169.611 217.118 169.608H180.39V132.88C180.39 132.324 180.842 131.874 181.396 131.874C181.581 131.864 181.764 131.912 181.916 132.016C185.559 135.175 190.033 137.219 194.808 137.902C199.58 138.583 204.448 137.873 208.828 135.859C214.703 133.176 219.316 128.336 221.715 122.343C224.115 116.349 224.115 109.661 221.715 103.669C219.316 97.6741 214.7 92.8345 208.828 90.1534C204.448 88.1391 199.58 87.4291 194.808 88.1102C190.035 88.7913 185.559 90.8344 181.918 93.9942C181.764 94.0977 181.581 94.1507 181.396 94.1386C180.842 94.1386 180.39 93.6886 180.39 93.1327L180.389 56.4041ZM44.6183 121.092C41.7954 121.073 39.0664 122.091 36.9438 123.951C34.8573 125.732 32.3015 126.878 29.5823 127.243C26.8605 127.612 24.0929 127.188 21.6096 126.026C18.2765 124.486 15.6607 121.728 14.3011 118.317C12.9415 114.907 12.9414 111.105 14.3011 107.695C15.6584 104.285 18.2743 101.527 21.6072 99.9866C24.0932 98.8242 26.8606 98.4007 29.5798 98.7664C32.2993 99.1347 34.855 100.28 36.9413 102.061C39.0639 103.921 41.7954 104.939 44.6183 104.92C47.742 104.918 50.7382 103.673 52.9495 101.464C55.1587 99.255 56.4005 96.2588 56.4053 93.133V56.4043H93.134C93.6899 56.4043 94.14 56.8567 94.14 57.4126C94.1496 57.5955 94.1015 57.7784 93.998 57.93C90.8382 61.5711 88.795 66.0474 88.1139 70.8196C87.4305 75.5942 88.1404 80.4624 90.1547 84.8427C92.8356 90.7147 97.6776 95.3302 103.67 97.7299C109.665 100.129 116.353 100.129 122.345 97.7299C128.339 95.3305 133.179 90.7146 135.86 84.8427C137.877 80.4604 138.585 75.5917 137.903 70.8196C137.22 66.045 135.177 61.5686 132.015 57.9275C131.914 57.7735 131.865 57.593 131.875 57.4101C131.875 56.8542 132.327 56.4042 132.881 56.4042H169.61V93.1329C169.614 96.259 170.856 99.2552 173.065 101.464C175.277 103.673 178.273 104.918 181.397 104.92C186.758 104.92 189.547 100.554 194.332 99.1947H194.334C197.684 98.3115 201.236 98.5907 204.406 99.9865C207.501 101.517 209.948 104.097 211.318 107.266C212.687 110.433 212.884 113.985 211.878 117.287C210.872 120.589 208.726 123.424 205.824 125.291C202.098 127.476 197.605 127.922 193.524 126.511C190.513 125.453 188.479 122.957 185.534 121.831C181.912 120.485 177.862 120.998 174.688 123.2C171.516 125.402 169.619 129.017 169.61 132.879V169.608H132.881C132.325 169.608 131.875 169.155 131.875 168.6C131.865 168.417 131.914 168.234 132.017 168.082C135.177 164.441 137.22 159.965 137.901 155.193C138.585 150.418 137.875 145.55 135.86 141.169C133.179 135.297 128.337 130.682 122.345 128.282C116.35 125.883 109.662 125.883 103.67 128.282C97.6756 130.682 92.836 135.298 90.1548 141.169C88.1381 145.552 87.4306 150.42 88.1116 155.193C88.7951 159.967 90.8383 164.444 94.0005 168.085C94.1016 168.239 94.1497 168.419 94.1401 168.602C94.1401 169.158 93.6876 169.608 93.1341 169.608H56.4054V132.879C56.4006 129.753 55.1589 126.757 52.9496 124.548C50.738 122.339 47.7418 121.095 44.6184 121.092L44.6183 121.092ZM169.608 293.594H132.879C129.756 293.596 126.757 294.841 124.548 297.052C122.339 299.261 121.095 302.258 121.092 305.383C121.073 308.204 122.091 310.935 123.949 313.056C125.732 315.142 126.878 317.698 127.246 320.417C127.614 323.136 127.191 325.906 126.026 328.39C124.486 331.723 121.728 334.339 118.317 335.698C114.907 337.058 111.105 337.058 107.695 335.698C104.285 334.339 101.524 331.723 99.9867 328.39C98.8219 325.906 98.3984 323.139 98.7665 320.419C99.1323 317.699 100.275 315.144 102.059 313.057C103.921 310.935 104.939 308.203 104.92 305.38C104.915 302.254 103.674 299.258 101.464 297.049C99.2527 294.84 96.2565 293.596 93.133 293.593H56.4043V256.865C56.4043 256.309 56.8568 255.859 57.4103 255.859C57.5956 255.849 57.7785 255.897 57.9301 256.001C61.5736 259.161 66.0475 261.204 70.8221 261.887C75.5943 262.568 80.4625 261.858 84.8428 259.844C90.7173 257.161 95.3303 252.321 97.7299 246.328C100.129 240.334 100.129 233.646 97.7299 227.654C95.3306 221.659 90.7147 216.82 84.8428 214.138C80.4629 212.124 75.5943 211.414 70.8221 212.095C66.0499 212.776 61.5736 214.82 57.9326 217.979C57.7785 218.083 57.5956 218.136 57.4103 218.124C56.8568 218.124 56.4044 217.674 56.4044 217.118V180.389H93.1331C96.2568 180.387 99.253 179.142 101.464 176.933C103.674 174.724 104.915 171.728 104.92 168.602C104.939 165.782 103.921 163.05 102.061 160.928C100.278 158.841 99.1348 156.285 98.7666 153.566C98.3984 150.847 98.8219 148.077 99.9867 145.593C101.525 142.26 104.285 139.644 107.695 138.285C111.105 136.925 114.908 136.925 118.317 138.285C121.727 139.645 124.486 142.26 126.026 145.593C127.191 148.077 127.614 150.847 127.246 153.566C126.878 156.285 125.732 158.841 123.949 160.928C122.089 163.05 121.073 165.782 121.092 168.602C121.097 171.728 122.339 174.724 124.548 176.933C126.76 179.142 129.756 180.387 132.879 180.389H169.608V217.118C169.608 217.763 168.67 218.502 168.082 217.982C164.439 214.822 159.965 212.779 155.19 212.098C150.418 211.417 145.55 212.124 141.17 214.138C135.295 216.822 130.682 221.661 128.283 227.654C125.883 233.649 125.883 240.337 128.283 246.328C130.682 252.323 135.298 257.163 141.17 259.844C145.55 261.858 150.418 262.566 155.19 261.885C159.963 261.204 164.439 259.163 168.08 256.003C168.682 255.469 169.608 256.196 169.608 256.865V293.594ZM328.39 250.011C325.906 251.176 323.136 251.6 320.417 251.232C317.698 250.863 315.14 249.718 313.056 247.935C310.933 246.077 308.202 245.059 305.381 245.078C302.257 245.08 299.261 246.325 297.05 248.534C294.841 250.743 293.599 253.739 293.594 256.865V293.594H256.865C256.213 293.594 255.467 292.662 255.999 292.068H256.002C259.161 288.427 261.204 283.951 261.886 279.178C262.569 274.404 261.859 269.536 259.845 265.155C257.164 259.283 252.322 254.668 246.329 252.268C240.335 249.869 233.647 249.869 227.655 252.268C221.66 254.667 216.82 259.283 214.139 265.155C212.123 269.535 211.415 274.406 212.096 279.178C212.78 283.953 214.823 288.427 217.985 292.068C218.517 292.667 217.776 293.594 217.119 293.594H180.39V256.865C180.385 253.739 179.143 250.743 176.934 248.534C174.722 246.325 171.726 245.08 168.603 245.078C165.78 245.059 163.051 246.077 160.928 247.937C158.842 249.718 156.286 250.861 153.564 251.229C150.845 251.597 148.077 251.174 145.594 250.011C142.26 248.471 139.645 245.713 138.285 242.303C136.925 238.893 136.925 235.091 138.285 231.681C139.642 228.271 142.258 225.513 145.591 223.972C148.077 222.808 150.845 222.384 153.564 222.752C156.283 223.12 158.839 224.263 160.925 226.047C163.048 227.907 165.779 228.925 168.602 228.906C171.726 228.903 174.722 227.659 176.933 225.45C179.143 223.241 180.384 220.245 180.389 217.119V180.39H217.118C217.777 180.39 218.516 181.312 217.982 181.916C213.756 186.801 211.573 193.123 211.886 199.573C212.197 206.022 214.978 212.106 219.654 216.56C224.328 221.015 230.539 223.499 236.996 223.496C243.452 223.496 249.663 221.01 254.337 216.553C259.01 212.098 261.79 206.015 262.098 199.563C262.409 193.113 260.224 186.791 255.995 181.911C255.463 181.312 256.195 180.39 256.864 180.39H293.593V217.119C293.598 220.245 294.839 223.241 297.049 225.45C299.26 227.659 302.256 228.903 305.38 228.906C308.203 228.925 310.932 227.907 313.054 226.047C315.141 224.263 317.697 223.12 320.418 222.752C323.138 222.384 325.905 222.807 328.391 223.972C331.724 225.512 334.34 228.27 335.697 231.681C337.057 235.091 337.057 238.893 335.697 242.303C334.337 245.713 331.721 248.471 328.388 250.011L328.39 250.011Z" fill="black"/>
</svg>
