<svg width="350" height="351" viewBox="0 0 350 351" fill="none" xmlns="http://www.w3.org/2000/svg">
<rect width="350" height="350" transform="translate(0 0.976166)" fill="white"/>
<path d="M52.5243 43.7247H114.625C91.6266 57.5258 74.3754 79.3739 65.1743 104.674H83.5765C93.3511 80.5239 112.901 60.9748 137.05 51.2007V26.4735H52.5243C49.0749 16.699 39.3002 9.2224 28.3741 9.2224C13.999 9.2224 2.5 20.7214 2.5 35.0965C2.5 49.4716 13.999 60.9707 28.3741 60.9707C39.3002 60.9747 48.5013 53.4984 52.5243 43.7236V43.7247ZM28.3741 43.7247C23.7736 43.7247 19.7507 39.6977 19.7507 35.1013C19.7507 30.5007 23.7777 26.4778 28.3741 26.4778C32.9747 26.4778 36.9975 30.5048 36.9975 35.1013C37.0015 39.7018 32.9746 43.7247 28.3741 43.7247ZM321.626 9.80049C310.7 9.80049 300.926 16.6993 297.476 27.0516H212.95V51.7747C237.1 61.5492 256.649 81.0989 266.423 105.248H284.826C276.202 79.3738 258.373 58.0956 235.375 44.2986H297.476C300.925 54.0732 310.7 61.5498 321.626 61.5498C336.001 61.5498 347.5 50.0507 347.5 35.6756C347.5 21.3005 336.001 9.80152 321.626 9.80152V9.80049ZM321.626 43.7247C317.025 43.7247 313.002 39.6977 313.002 35.1013C313.002 30.5007 317.029 26.4778 321.626 26.4778C326.226 26.4778 330.249 30.5048 330.249 35.1013C330.249 39.7018 326.226 43.7247 321.626 43.7247ZM250.901 215.076C199.153 194.948 183.626 92.5999 183.626 91.4499C183.626 90.2988 183.053 89.7252 182.475 88.5741V88.0005C181.901 87.427 181.324 86.2758 180.75 85.7023H180.177C179.603 85.1287 178.452 84.5511 177.878 84.5511C176.723 84.5511 176.15 83.9736 174.999 83.9736C173.847 83.9736 173.274 83.9736 172.123 84.5471C171.549 85.1207 170.398 85.1207 169.824 85.6983H169.251C168.677 86.2718 168.1 86.8494 167.526 87.9965V88.5701C166.953 89.1436 166.953 90.2948 166.375 90.8684C166.375 92.0195 150.849 193.794 99.0997 214.494C96.8014 215.645 94.4991 217.37 93.9256 220.246C93.352 223.122 93.352 225.42 95.0767 227.722C95.6502 228.296 124.401 270.847 139.927 326.05H126.126C121.525 326.05 117.502 330.077 117.502 334.673C117.502 339.274 121.529 343.297 126.126 343.297H224.453C229.054 343.297 233.077 339.27 233.077 334.673C233.077 330.073 229.05 326.05 224.453 326.05H210.652C226.178 271.425 254.929 228.3 255.503 227.722C257.227 225.424 257.227 222.548 256.654 220.246C255.499 217.952 253.2 215.653 250.902 215.076H250.901ZM174.999 244.977C181.324 244.977 185.925 250.151 185.925 255.903C185.925 261.655 180.751 266.829 174.999 266.829C169.247 266.829 164.073 261.655 164.073 255.903C164.073 250.151 168.673 244.977 174.999 244.977ZM192.25 326.053H157.748C145.671 280.63 124.971 242.679 114.623 226.579C139.346 212.204 155.45 184.028 166.371 157.579V229.455C154.872 232.904 146.822 243.83 146.822 256.48C146.822 272.006 159.472 284.656 174.998 284.656C190.524 284.656 203.174 272.006 203.174 256.48C203.174 243.83 194.551 233.482 183.625 229.455L183.621 157.002C193.969 184.028 210.646 212.205 235.369 226.002C225.599 242.679 204.321 280.63 192.248 326.053H192.25ZM157.175 61.5518H192.824C197.425 61.5518 201.447 57.5249 201.447 52.9284V17.2792C201.447 12.6787 197.421 8.65582 192.824 8.65582H157.175C152.574 8.65582 148.551 12.6828 148.551 17.2792V52.9284C148.547 58.1025 152.574 61.5518 157.175 61.5518ZM165.798 25.9026H184.2V44.3048H165.798V25.9026ZM93.9229 125.377C93.9229 120.777 89.8959 116.754 85.2995 116.754H49.6503C45.0497 116.754 41.0269 120.781 41.0269 125.377V161.026C41.0269 165.627 45.0538 169.65 49.6503 169.65H85.2995C89.9 169.65 93.9229 165.623 93.9229 161.026V125.377ZM76.6717 152.402H58.2696V134H76.6717V152.402ZM300.348 116.753H264.699C260.098 116.753 256.075 120.78 256.075 125.377V161.026C256.075 165.626 260.102 169.649 264.699 169.649H300.348C304.949 169.649 308.971 165.622 308.971 161.026V125.377C308.975 120.202 305.526 116.753 300.348 116.753V116.753ZM291.725 152.402H273.322V134H291.725V152.402Z" fill="black"/>
</svg>
