<svg width="350" height="351" viewBox="0 0 350 351" fill="none" xmlns="http://www.w3.org/2000/svg">
<rect width="350" height="350" transform="translate(0 0.354797)" fill="white"/>
<path d="M306.884 11.9698H43.1161C20.7197 11.9698 2.5 30.1865 2.5 52.5837V298.126C2.5 320.522 20.7197 338.74 43.1161 338.74H306.884C329.28 338.74 347.5 320.523 347.5 298.126V52.5912C347.503 30.1947 329.28 11.9751 306.884 11.9751V11.9698ZM330.082 298.122C330.082 310.908 319.676 321.315 306.89 321.315H43.1146C30.3283 321.315 19.9223 310.911 19.9223 298.122V113.372H330.079L330.082 298.122ZM330.082 95.9527H19.9252V52.5859C19.9252 39.7996 30.332 29.3936 43.1176 29.3936H306.885C319.672 29.3936 330.078 39.7974 330.078 52.5859L330.081 95.9527H330.082Z" fill="black"/>
<path d="M46.5283 56.4565H71.8882V73.8773H46.5283V56.4565Z" fill="black"/>
<path d="M87.5491 56.4565H112.909V73.8773H87.5491V56.4565Z" fill="black"/>
<path d="M128.57 56.4565H153.93V73.8773H128.57V56.4565Z" fill="black"/>
<path d="M54.4428 273.596H127.631C132.444 273.596 136.343 269.697 136.343 264.884L136.34 167.126C136.34 162.314 132.441 158.414 127.628 158.414H54.4421C49.6297 158.414 45.7302 162.314 45.7302 167.126V264.884C45.7302 269.697 49.6297 273.596 54.4421 273.596H54.4428ZM63.1517 175.838H118.919V256.17H63.1517V175.838Z" fill="black"/>
<path d="M155.696 166.647H236.027V184.067H155.696V166.647Z" fill="black"/>
<path d="M155.696 207.294H294.109V224.715H155.696V207.294Z" fill="black"/>
<path d="M155.696 247.949H294.109V265.37H155.696V247.949Z" fill="black"/>
</svg>
