<svg width="350" height="350" viewBox="0 0 350 350" fill="none" xmlns="http://www.w3.org/2000/svg">
<rect width="350" height="350" fill="white"/>
<path d="M338.948 156.594L317.387 135.033C313.21 130.852 306.37 130.795 302.143 135.033L266.639 170.533V13.2803C266.639 7.32415 261.815 2.5 255.859 2.5H18.67C12.7138 2.5 7.88965 7.32434 7.88965 13.2803V336.72C7.88965 342.676 12.714 347.5 18.67 347.5H255.859C261.815 347.5 266.639 342.676 266.639 336.72L266.643 244.151L338.952 171.842C343.163 167.63 343.163 160.805 338.952 156.598L338.948 156.594ZM178.942 285.171L188.797 295.026L176.479 297.489L178.942 285.171ZM194.652 293.259L180.713 279.32L228.114 231.919L242.053 245.858L194.652 293.259ZM245.862 242.048L231.923 228.11L298.194 161.839L312.132 175.778L245.862 242.048ZM250.464 194.324L171.184 273.604C170.425 274.364 169.925 275.307 169.714 276.364L164.322 303.317C163.555 307.134 166.98 310.439 170.662 309.657L197.615 304.265C198.656 304.054 199.615 303.535 200.375 302.795L250.465 252.693V331.32H24.0572V18.6619H250.465L250.464 194.324ZM315.942 171.969L302.003 158.03L309.764 150.273L323.703 164.212L315.942 171.969ZM56.4009 83.3515H218.121C221.102 83.3515 223.513 80.9374 223.513 77.9593V56.3986C223.513 53.4243 221.102 51.0064 218.121 51.0064H56.4009C53.4266 51.0064 51.0087 53.4204 51.0087 56.3986V77.9593C51.0087 80.9374 53.4228 83.3515 56.4009 83.3515ZM61.7894 61.7869H212.728V72.5673L61.7894 72.571V61.7869ZM56.4009 126.478H218.121C221.102 126.478 223.513 124.064 223.513 121.085V99.5248C223.513 96.5505 221.102 94.1326 218.121 94.1326H56.4009C53.4266 94.1326 51.0087 96.5466 51.0087 99.5248V121.085C51.0087 124.06 53.4228 126.478 56.4009 126.478ZM61.7894 104.913H212.728V115.693H61.7894V104.913ZM56.4009 169.6H218.121C221.102 169.6 223.513 167.186 223.513 164.208V142.647C223.513 139.673 221.102 137.255 218.121 137.255L56.4009 137.259C53.4266 137.259 51.0087 139.673 51.0087 142.651V164.212C51.0087 167.186 53.4228 169.6 56.4009 169.6V169.6ZM61.7894 148.039H212.728V158.82H61.7894V148.039ZM56.4009 212.726H174.995C177.977 212.726 180.388 210.312 180.388 207.334V185.773C180.388 182.799 177.977 180.381 174.995 180.381L56.4009 180.385C53.4266 180.385 51.0087 182.799 51.0087 185.777V207.338C51.0087 210.312 53.4228 212.726 56.4009 212.726V212.726ZM61.7894 191.166H169.602V201.946H61.7894V191.166Z" fill="black"/>
</svg>
