<svg width="199" height="58" viewBox="0 0 199 58" fill="none" xmlns="http://www.w3.org/2000/svg">
<path d="M6.52 19.8477C5.24 19.8477 4.16667 19.661 3.3 19.2877C2.44667 18.9144 1.8 18.4277 1.36 17.8277C0.92 17.2277 0.686667 16.5877 0.66 15.9077C0.66 15.7877 0.7 15.6877 0.78 15.6077C0.86 15.5277 0.96 15.4877 1.08 15.4877H3.24C3.41333 15.4877 3.54667 15.521 3.64 15.5877C3.73333 15.6544 3.82 15.741 3.9 15.8477C3.99333 16.0877 4.14 16.3144 4.34 16.5277C4.55333 16.741 4.83333 16.9144 5.18 17.0477C5.54 17.181 5.98667 17.2477 6.52 17.2477C7.38667 17.2477 8.03333 17.1077 8.46 16.8277C8.9 16.5477 9.12 16.1677 9.12 15.6877C9.12 15.3544 9 15.081 8.76 14.8677C8.53333 14.6544 8.16667 14.461 7.66 14.2877C7.16667 14.1144 6.50667 13.9344 5.68 13.7477C4.68 13.521 3.82667 13.241 3.12 12.9077C2.42667 12.561 1.9 12.121 1.54 11.5877C1.19333 11.041 1.02 10.3677 1.02 9.5677C1.02 8.7677 1.24 8.06104 1.68 7.4477C2.12 6.82104 2.74 6.33437 3.54 5.9877C4.34 5.6277 5.29333 5.4477 6.4 5.4477C7.29333 5.4477 8.08 5.5677 8.76 5.8077C9.45333 6.0477 10.0267 6.36104 10.48 6.7477C10.9467 7.13437 11.3 7.5477 11.54 7.9877C11.78 8.4277 11.9067 8.85437 11.92 9.2677C11.92 9.3877 11.88 9.49437 11.8 9.5877C11.7333 9.6677 11.6333 9.7077 11.5 9.7077H9.26C9.12667 9.7077 9.00667 9.68104 8.9 9.6277C8.79333 9.57437 8.7 9.48104 8.62 9.3477C8.55333 8.9877 8.32 8.68104 7.92 8.4277C7.53333 8.17437 7.02667 8.0477 6.4 8.0477C5.74667 8.0477 5.22667 8.1677 4.84 8.4077C4.46667 8.63437 4.28 8.99437 4.28 9.4877C4.28 9.8077 4.38 10.081 4.58 10.3077C4.78 10.521 5.10667 10.7144 5.56 10.8877C6.01333 11.0477 6.62667 11.221 7.4 11.4077C8.56 11.6477 9.50667 11.941 10.24 12.2877C10.9733 12.621 11.5133 13.0544 11.86 13.5877C12.2067 14.1077 12.38 14.7677 12.38 15.5677C12.38 16.461 12.1333 17.2277 11.64 17.8677C11.1467 18.5077 10.46 19.001 9.58 19.3477C8.7 19.681 7.68 19.8477 6.52 19.8477ZM17.3669 19.8477C16.6602 19.8477 16.0269 19.7144 15.4669 19.4477C14.9069 19.1677 14.4602 18.7944 14.1269 18.3277C13.7935 17.861 13.6269 17.341 13.6269 16.7677C13.6269 15.821 14.0069 15.0744 14.7669 14.5277C15.5402 13.981 16.5535 13.6077 17.8069 13.4077L20.4269 13.0277V12.6677C20.4269 12.1477 20.3069 11.7477 20.0669 11.4677C19.8269 11.1877 19.4069 11.0477 18.8069 11.0477C18.3669 11.0477 18.0135 11.1344 17.7469 11.3077C17.4935 11.481 17.2935 11.7077 17.1469 11.9877C17.0402 12.161 16.8802 12.2477 16.6669 12.2477H14.7669C14.6202 12.2477 14.5069 12.2077 14.4269 12.1277C14.3469 12.0344 14.3135 11.9277 14.3269 11.8077C14.3269 11.581 14.4135 11.3144 14.5869 11.0077C14.7602 10.701 15.0269 10.401 15.3869 10.1077C15.7469 9.80104 16.2069 9.5477 16.7669 9.3477C17.3402 9.1477 18.0269 9.0477 18.8269 9.0477C19.6669 9.0477 20.3869 9.1477 20.9869 9.3477C21.5869 9.5477 22.0669 9.8277 22.4269 10.1877C22.8002 10.5477 23.0669 10.9677 23.2269 11.4477C23.4002 11.9144 23.4869 12.421 23.4869 12.9677V19.1477C23.4869 19.2944 23.4402 19.4144 23.3469 19.5077C23.2535 19.601 23.1402 19.6477 23.0069 19.6477H21.0269C20.8935 19.6477 20.7802 19.601 20.6869 19.5077C20.5935 19.4144 20.5469 19.2944 20.5469 19.1477V18.4077C20.3735 18.661 20.1402 18.901 19.8469 19.1277C19.5535 19.341 19.2002 19.5144 18.7869 19.6477C18.3869 19.781 17.9135 19.8477 17.3669 19.8477ZM18.1669 17.7677C18.6069 17.7677 19.0002 17.6744 19.3469 17.4877C19.6935 17.301 19.9669 17.0144 20.1669 16.6277C20.3669 16.241 20.4669 15.7544 20.4669 15.1677V14.8277L18.6069 15.1277C17.9002 15.2477 17.3802 15.4277 17.0469 15.6677C16.7135 15.9077 16.5469 16.201 16.5469 16.5477C16.5469 16.801 16.6202 17.021 16.7669 17.2077C16.9269 17.381 17.1269 17.521 17.3669 17.6277C17.6202 17.721 17.8869 17.7677 18.1669 17.7677ZM26.3884 19.6477C26.2551 19.6477 26.1351 19.601 26.0284 19.5077C25.9351 19.4144 25.8884 19.2944 25.8884 19.1477V9.7477C25.8884 9.60104 25.9351 9.48104 26.0284 9.3877C26.1351 9.29437 26.2551 9.2477 26.3884 9.2477H28.3484C28.4951 9.2477 28.6151 9.29437 28.7084 9.3877C28.8018 9.48104 28.8484 9.60104 28.8484 9.7477V10.5277C29.1951 10.101 29.6418 9.7477 30.1884 9.46771C30.7484 9.1877 31.4151 9.0477 32.1884 9.0477C32.9751 9.0477 33.6684 9.2277 34.2684 9.5877C34.8684 9.93437 35.3351 10.4477 35.6684 11.1277C36.0018 11.7944 36.1684 12.6077 36.1684 13.5677V19.1477C36.1684 19.2944 36.1218 19.4144 36.0284 19.5077C35.9351 19.601 35.8151 19.6477 35.6684 19.6477H33.5484C33.4018 19.6477 33.2818 19.601 33.1884 19.5077C33.0951 19.4144 33.0484 19.2944 33.0484 19.1477V13.6877C33.0484 12.981 32.8751 12.4344 32.5284 12.0477C32.1951 11.6477 31.7018 11.4477 31.0484 11.4477C30.4218 11.4477 29.9218 11.6477 29.5484 12.0477C29.1884 12.4344 29.0084 12.981 29.0084 13.6877V19.1477C29.0084 19.2944 28.9618 19.4144 28.8684 19.5077C28.7751 19.601 28.6551 19.6477 28.5084 19.6477H26.3884ZM43.6788 19.6477C43.5454 19.6477 43.4321 19.601 43.3388 19.5077C43.2454 19.4144 43.1988 19.2944 43.1988 19.1477V6.1477C43.1988 6.00104 43.2454 5.88104 43.3388 5.7877C43.4321 5.69437 43.5454 5.6477 43.6788 5.6477H52.6188C52.7654 5.6477 52.8854 5.69437 52.9788 5.7877C53.0721 5.88104 53.1188 6.00104 53.1188 6.1477V7.8677C53.1188 8.00104 53.0721 8.11437 52.9788 8.2077C52.8854 8.30104 52.7654 8.34771 52.6188 8.34771H46.3388V11.7277H52.2188C52.3654 11.7277 52.4854 11.7744 52.5788 11.8677C52.6721 11.961 52.7188 12.081 52.7188 12.2277V13.9277C52.7188 14.061 52.6721 14.1744 52.5788 14.2677C52.4854 14.361 52.3654 14.4077 52.2188 14.4077H46.3388V19.1477C46.3388 19.2944 46.2921 19.4144 46.1988 19.5077C46.1054 19.601 45.9854 19.6477 45.8388 19.6477H43.6788ZM55.4509 19.6477C55.3176 19.6477 55.1976 19.601 55.0909 19.5077C54.9976 19.4144 54.9509 19.2944 54.9509 19.1477V9.7477C54.9509 9.61437 54.9976 9.50104 55.0909 9.4077C55.1976 9.30104 55.3176 9.2477 55.4509 9.2477H57.4109C57.5576 9.2477 57.6776 9.30104 57.7709 9.4077C57.8643 9.50104 57.9109 9.61437 57.9109 9.7477V10.5477C58.2443 10.1344 58.6576 9.81437 59.1509 9.5877C59.6443 9.36104 60.2043 9.2477 60.8309 9.2477H61.6909C61.8376 9.2477 61.9576 9.29437 62.0509 9.3877C62.1443 9.48104 62.1909 9.60104 62.1909 9.7477V11.4877C62.1909 11.621 62.1443 11.7344 62.0509 11.8277C61.9576 11.921 61.8376 11.9677 61.6909 11.9677H59.9509C59.3509 11.9677 58.8843 12.1344 58.5509 12.4677C58.2309 12.801 58.0709 13.261 58.0709 13.8477V19.1477C58.0709 19.2944 58.0176 19.4144 57.9109 19.5077C57.8176 19.601 57.7043 19.6477 57.5709 19.6477H55.4509ZM66.5661 19.8477C65.8594 19.8477 65.2261 19.7144 64.6661 19.4477C64.1061 19.1677 63.6594 18.7944 63.3261 18.3277C62.9928 17.861 62.8261 17.341 62.8261 16.7677C62.8261 15.821 63.2061 15.0744 63.9661 14.5277C64.7394 13.981 65.7528 13.6077 67.0061 13.4077L69.6261 13.0277V12.6677C69.6261 12.1477 69.5061 11.7477 69.2661 11.4677C69.0261 11.1877 68.6061 11.0477 68.0061 11.0477C67.5661 11.0477 67.2128 11.1344 66.9461 11.3077C66.6928 11.481 66.4928 11.7077 66.3461 11.9877C66.2394 12.161 66.0794 12.2477 65.8661 12.2477H63.9661C63.8194 12.2477 63.7061 12.2077 63.6261 12.1277C63.5461 12.0344 63.5128 11.9277 63.5261 11.8077C63.5261 11.581 63.6128 11.3144 63.7861 11.0077C63.9594 10.701 64.2261 10.401 64.5861 10.1077C64.9461 9.80104 65.4061 9.5477 65.9661 9.3477C66.5394 9.1477 67.2261 9.0477 68.0261 9.0477C68.8661 9.0477 69.5861 9.1477 70.1861 9.3477C70.7861 9.5477 71.2661 9.8277 71.6261 10.1877C71.9994 10.5477 72.2661 10.9677 72.4261 11.4477C72.5994 11.9144 72.6861 12.421 72.6861 12.9677V19.1477C72.6861 19.2944 72.6394 19.4144 72.5461 19.5077C72.4528 19.601 72.3394 19.6477 72.2061 19.6477H70.2261C70.0928 19.6477 69.9794 19.601 69.8861 19.5077C69.7928 19.4144 69.7461 19.2944 69.7461 19.1477V18.4077C69.5728 18.661 69.3394 18.901 69.0461 19.1277C68.7528 19.341 68.3994 19.5144 67.9861 19.6477C67.5861 19.781 67.1128 19.8477 66.5661 19.8477ZM67.3661 17.7677C67.8061 17.7677 68.1994 17.6744 68.5461 17.4877C68.8928 17.301 69.1661 17.0144 69.3661 16.6277C69.5661 16.241 69.6661 15.7544 69.6661 15.1677V14.8277L67.8061 15.1277C67.0994 15.2477 66.5794 15.4277 66.2461 15.6677C65.9128 15.9077 65.7461 16.201 65.7461 16.5477C65.7461 16.801 65.8194 17.021 65.9661 17.2077C66.1261 17.381 66.3261 17.521 66.5661 17.6277C66.8194 17.721 67.0861 17.7677 67.3661 17.7677ZM75.5877 19.6477C75.4543 19.6477 75.3343 19.601 75.2277 19.5077C75.1343 19.4144 75.0877 19.2944 75.0877 19.1477V9.7477C75.0877 9.60104 75.1343 9.48104 75.2277 9.3877C75.3343 9.29437 75.4543 9.2477 75.5877 9.2477H77.5477C77.6943 9.2477 77.8143 9.29437 77.9077 9.3877C78.001 9.48104 78.0477 9.60104 78.0477 9.7477V10.5277C78.3943 10.101 78.841 9.7477 79.3877 9.46771C79.9477 9.1877 80.6143 9.0477 81.3877 9.0477C82.1743 9.0477 82.8677 9.2277 83.4677 9.5877C84.0677 9.93437 84.5343 10.4477 84.8677 11.1277C85.201 11.7944 85.3677 12.6077 85.3677 13.5677V19.1477C85.3677 19.2944 85.321 19.4144 85.2277 19.5077C85.1343 19.601 85.0143 19.6477 84.8677 19.6477H82.7477C82.601 19.6477 82.481 19.601 82.3877 19.5077C82.2943 19.4144 82.2477 19.2944 82.2477 19.1477V13.6877C82.2477 12.981 82.0743 12.4344 81.7277 12.0477C81.3943 11.6477 80.901 11.4477 80.2477 11.4477C79.621 11.4477 79.121 11.6477 78.7477 12.0477C78.3877 12.4344 78.2077 12.981 78.2077 13.6877V19.1477C78.2077 19.2944 78.161 19.4144 78.0677 19.5077C77.9743 19.601 77.8543 19.6477 77.7077 19.6477H75.5877ZM92.4039 19.8477C91.4172 19.8477 90.5506 19.6677 89.8039 19.3077C89.0706 18.9477 88.4906 18.4277 88.0639 17.7477C87.6372 17.0544 87.4039 16.2277 87.3639 15.2677C87.3506 15.0544 87.3439 14.7877 87.3439 14.4677C87.3439 14.1344 87.3506 13.861 87.3639 13.6477C87.4039 12.6744 87.6306 11.8477 88.0439 11.1677C88.4706 10.4744 89.0572 9.9477 89.8039 9.5877C90.5506 9.2277 91.4172 9.0477 92.4039 9.0477C93.2839 9.0477 94.0372 9.17437 94.6639 9.4277C95.2906 9.6677 95.8039 9.98104 96.2039 10.3677C96.6039 10.741 96.9039 11.1277 97.1039 11.5277C97.3039 11.9277 97.4106 12.281 97.4239 12.5877C97.4372 12.7344 97.3906 12.8544 97.2839 12.9477C97.1772 13.041 97.0572 13.0877 96.9239 13.0877H94.7839C94.6372 13.0877 94.5239 13.0544 94.4439 12.9877C94.3772 12.921 94.3106 12.8144 94.2439 12.6677C94.0706 12.201 93.8372 11.8677 93.5439 11.6677C93.2506 11.4677 92.8839 11.3677 92.4439 11.3677C91.8439 11.3677 91.3706 11.561 91.0239 11.9477C90.6906 12.3344 90.5106 12.9344 90.4839 13.7477C90.4572 14.2677 90.4572 14.741 90.4839 15.1677C90.5106 15.9944 90.6906 16.5944 91.0239 16.9677C91.3706 17.341 91.8439 17.5277 92.4439 17.5277C92.9106 17.5277 93.2839 17.4277 93.5639 17.2277C93.8439 17.0277 94.0706 16.6944 94.2439 16.2277C94.3106 16.081 94.3772 15.9744 94.4439 15.9077C94.5239 15.841 94.6372 15.8077 94.7839 15.8077H96.9239C97.0572 15.8077 97.1772 15.8544 97.2839 15.9477C97.3906 16.041 97.4372 16.161 97.4239 16.3077C97.4106 16.5344 97.3439 16.801 97.2239 17.1077C97.1039 17.4144 96.9172 17.7277 96.6639 18.0477C96.4239 18.3677 96.1106 18.6677 95.7239 18.9477C95.3372 19.2144 94.8639 19.4344 94.3039 19.6077C93.7572 19.7677 93.1239 19.8477 92.4039 19.8477ZM99.8455 19.6477C99.7121 19.6477 99.5921 19.601 99.4855 19.5077C99.3921 19.4144 99.3455 19.2944 99.3455 19.1477V9.7477C99.3455 9.60104 99.3921 9.48104 99.4855 9.3877C99.5921 9.29437 99.7121 9.2477 99.8455 9.2477H101.865C101.999 9.2477 102.112 9.29437 102.205 9.3877C102.299 9.48104 102.345 9.60104 102.345 9.7477V19.1477C102.345 19.2944 102.299 19.4144 102.205 19.5077C102.112 19.601 101.999 19.6477 101.865 19.6477H99.8455ZM99.7855 7.6477C99.6521 7.6477 99.5388 7.60104 99.4455 7.5077C99.3521 7.41437 99.3055 7.29437 99.3055 7.14771V5.5277C99.3055 5.39437 99.3521 5.28104 99.4455 5.1877C99.5388 5.08104 99.6521 5.0277 99.7855 5.0277H101.905C102.039 5.0277 102.152 5.08104 102.245 5.1877C102.352 5.28104 102.405 5.39437 102.405 5.5277V7.14771C102.405 7.29437 102.352 7.41437 102.245 7.5077C102.152 7.60104 102.039 7.6477 101.905 7.6477H99.7855ZM108.973 19.8477C108.147 19.8477 107.433 19.7544 106.833 19.5677C106.247 19.3677 105.767 19.1277 105.393 18.8477C105.033 18.5677 104.76 18.2877 104.573 18.0077C104.4 17.7144 104.307 17.4677 104.293 17.2677C104.28 17.121 104.327 17.001 104.433 16.9077C104.54 16.8144 104.647 16.7677 104.753 16.7677H106.693C106.747 16.7677 106.787 16.7744 106.813 16.7877C106.853 16.801 106.9 16.8344 106.953 16.8877C107.127 17.0077 107.3 17.1477 107.473 17.3077C107.66 17.4544 107.88 17.581 108.133 17.6877C108.387 17.7944 108.693 17.8477 109.053 17.8477C109.493 17.8477 109.86 17.761 110.153 17.5877C110.46 17.401 110.613 17.141 110.613 16.8077C110.613 16.5677 110.547 16.3677 110.413 16.2077C110.28 16.0477 110.02 15.901 109.633 15.7677C109.247 15.6344 108.673 15.4877 107.913 15.3277C107.193 15.1677 106.58 14.9544 106.073 14.6877C105.567 14.421 105.187 14.0877 104.933 13.6877C104.68 13.2744 104.553 12.781 104.553 12.2077C104.553 11.6877 104.713 11.1877 105.033 10.7077C105.367 10.2277 105.853 9.83437 106.493 9.5277C107.133 9.2077 107.933 9.0477 108.893 9.0477C109.627 9.0477 110.267 9.14104 110.813 9.3277C111.373 9.50104 111.84 9.7277 112.213 10.0077C112.587 10.2744 112.867 10.5544 113.053 10.8477C113.253 11.1277 113.36 11.3744 113.373 11.5877C113.387 11.7344 113.347 11.8544 113.253 11.9477C113.16 12.041 113.053 12.0877 112.933 12.0877H111.153C111.087 12.0877 111.027 12.0744 110.973 12.0477C110.92 12.021 110.873 11.9877 110.833 11.9477C110.673 11.8544 110.507 11.7344 110.333 11.5877C110.173 11.441 109.98 11.3144 109.753 11.2077C109.527 11.101 109.233 11.0477 108.873 11.0477C108.447 11.0477 108.113 11.1477 107.873 11.3477C107.647 11.5344 107.533 11.7744 107.533 12.0677C107.533 12.2544 107.593 12.4277 107.713 12.5877C107.833 12.7477 108.073 12.8944 108.433 13.0277C108.807 13.161 109.38 13.301 110.153 13.4477C111.06 13.6077 111.78 13.8477 112.313 14.1677C112.847 14.4877 113.227 14.861 113.453 15.2877C113.68 15.701 113.793 16.1477 113.793 16.6277C113.793 17.2544 113.607 17.8144 113.233 18.3077C112.873 18.7877 112.333 19.1677 111.613 19.4477C110.893 19.7144 110.013 19.8477 108.973 19.8477ZM120.373 19.8477C119.386 19.8477 118.519 19.6677 117.773 19.3077C117.039 18.9477 116.459 18.4277 116.033 17.7477C115.606 17.0544 115.373 16.2277 115.333 15.2677C115.319 15.0544 115.313 14.7877 115.313 14.4677C115.313 14.1344 115.319 13.861 115.333 13.6477C115.373 12.6744 115.599 11.8477 116.013 11.1677C116.439 10.4744 117.026 9.9477 117.773 9.5877C118.519 9.2277 119.386 9.0477 120.373 9.0477C121.253 9.0477 122.006 9.17437 122.633 9.4277C123.259 9.6677 123.773 9.98104 124.173 10.3677C124.573 10.741 124.873 11.1277 125.073 11.5277C125.273 11.9277 125.379 12.281 125.393 12.5877C125.406 12.7344 125.359 12.8544 125.253 12.9477C125.146 13.041 125.026 13.0877 124.893 13.0877H122.753C122.606 13.0877 122.493 13.0544 122.413 12.9877C122.346 12.921 122.279 12.8144 122.213 12.6677C122.039 12.201 121.806 11.8677 121.513 11.6677C121.219 11.4677 120.853 11.3677 120.413 11.3677C119.813 11.3677 119.339 11.561 118.993 11.9477C118.659 12.3344 118.479 12.9344 118.453 13.7477C118.426 14.2677 118.426 14.741 118.453 15.1677C118.479 15.9944 118.659 16.5944 118.993 16.9677C119.339 17.341 119.813 17.5277 120.413 17.5277C120.879 17.5277 121.253 17.4277 121.533 17.2277C121.813 17.0277 122.039 16.6944 122.213 16.2277C122.279 16.081 122.346 15.9744 122.413 15.9077C122.493 15.841 122.606 15.8077 122.753 15.8077H124.893C125.026 15.8077 125.146 15.8544 125.253 15.9477C125.359 16.041 125.406 16.161 125.393 16.3077C125.379 16.5344 125.313 16.801 125.193 17.1077C125.073 17.4144 124.886 17.7277 124.633 18.0477C124.393 18.3677 124.079 18.6677 123.693 18.9477C123.306 19.2144 122.833 19.4344 122.273 19.6077C121.726 19.7677 121.093 19.8477 120.373 19.8477ZM132.094 19.8477C130.988 19.8477 130.061 19.6677 129.314 19.3077C128.568 18.9344 127.994 18.4077 127.594 17.7277C127.208 17.0477 126.994 16.2544 126.954 15.3477C126.941 15.081 126.934 14.781 126.934 14.4477C126.934 14.101 126.941 13.801 126.954 13.5477C126.994 12.6277 127.221 11.8344 127.634 11.1677C128.048 10.4877 128.628 9.9677 129.374 9.6077C130.121 9.23437 131.028 9.0477 132.094 9.0477C133.148 9.0477 134.048 9.23437 134.794 9.6077C135.541 9.9677 136.121 10.4877 136.534 11.1677C136.948 11.8344 137.181 12.6277 137.234 13.5477C137.248 13.801 137.254 14.101 137.254 14.4477C137.254 14.781 137.248 15.081 137.234 15.3477C137.181 16.2544 136.954 17.0477 136.554 17.7277C136.168 18.4077 135.601 18.9344 134.854 19.3077C134.108 19.6677 133.188 19.8477 132.094 19.8477ZM132.094 17.6277C132.748 17.6277 133.234 17.4277 133.554 17.0277C133.888 16.6277 134.074 16.0344 134.114 15.2477C134.128 15.0477 134.134 14.781 134.134 14.4477C134.134 14.1144 134.128 13.8477 134.114 13.6477C134.074 12.8744 133.888 12.2877 133.554 11.8877C133.234 11.4744 132.748 11.2677 132.094 11.2677C131.441 11.2677 130.948 11.4744 130.614 11.8877C130.281 12.2877 130.094 12.8744 130.054 13.6477C130.041 13.8477 130.034 14.1144 130.034 14.4477C130.034 14.781 130.041 15.0477 130.054 15.2477C130.094 16.0344 130.281 16.6277 130.614 17.0277C130.948 17.4277 131.441 17.6277 132.094 17.6277ZM2.352 47.6477C2.192 47.6477 2.056 47.5917 1.944 47.4797C1.832 47.3677 1.776 47.2237 1.776 47.0477V31.4477C1.776 31.2717 1.832 31.1277 1.944 31.0157C2.056 30.9037 2.192 30.8477 2.352 30.8477H8.4C10 30.8477 11.336 31.1037 12.408 31.6157C13.48 32.1117 14.296 32.8477 14.856 33.8237C15.432 34.7837 15.736 35.9757 15.768 37.3997C15.8 38.1037 15.816 38.7197 15.816 39.2477C15.816 39.7757 15.8 40.3837 15.768 41.0717C15.72 42.5597 15.424 43.7917 14.88 44.7677C14.336 45.7437 13.536 46.4717 12.48 46.9517C11.44 47.4157 10.12 47.6477 8.52 47.6477H2.352ZM5.592 44.5277H8.4C9.2 44.5277 9.848 44.4157 10.344 44.1917C10.856 43.9517 11.24 43.5757 11.496 43.0637C11.752 42.5357 11.888 41.8557 11.904 41.0237C11.92 40.5597 11.928 40.1437 11.928 39.7757C11.944 39.4077 11.944 39.0397 11.928 38.6717C11.928 38.3037 11.92 37.8957 11.904 37.4477C11.872 36.2477 11.56 35.3677 10.968 34.8077C10.392 34.2477 9.496 33.9677 8.28 33.9677H5.592V44.5277ZM19.3676 47.6477C19.2076 47.6477 19.0716 47.5917 18.9596 47.4797C18.8476 47.3677 18.7916 47.2237 18.7916 47.0477V31.4477C18.7916 31.2717 18.8476 31.1277 18.9596 31.0157C19.0716 30.9037 19.2076 30.8477 19.3676 30.8477H30.2636C30.4396 30.8477 30.5836 30.9037 30.6956 31.0157C30.8076 31.1277 30.8636 31.2717 30.8636 31.4477V33.3677C30.8636 33.5437 30.8076 33.6877 30.6956 33.7997C30.5836 33.9117 30.4396 33.9677 30.2636 33.9677H22.4876V37.7117H29.7356C29.9116 37.7117 30.0556 37.7677 30.1676 37.8797C30.2796 37.9917 30.3356 38.1357 30.3356 38.3117V40.0877C30.3356 40.2477 30.2796 40.3917 30.1676 40.5197C30.0556 40.6317 29.9116 40.6877 29.7356 40.6877H22.4876V44.5277H30.4556C30.6316 44.5277 30.7756 44.5837 30.8876 44.6957C30.9996 44.8077 31.0556 44.9517 31.0556 45.1277V47.0477C31.0556 47.2237 30.9996 47.3677 30.8876 47.4797C30.7756 47.5917 30.6316 47.6477 30.4556 47.6477H19.3676ZM39.9803 47.8877C38.4443 47.8877 37.1563 47.6637 36.1163 47.2157C35.0923 46.7677 34.3163 46.1837 33.7883 45.4637C33.2603 44.7437 32.9803 43.9757 32.9482 43.1597C32.9482 43.0157 32.9963 42.8957 33.0923 42.7997C33.1883 42.7037 33.3083 42.6557 33.4523 42.6557H36.0443C36.2523 42.6557 36.4123 42.6957 36.5243 42.7757C36.6363 42.8557 36.7403 42.9597 36.8363 43.0877C36.9483 43.3757 37.1243 43.6477 37.3643 43.9037C37.6203 44.1597 37.9563 44.3677 38.3723 44.5277C38.8043 44.6877 39.3403 44.7677 39.9803 44.7677C41.0203 44.7677 41.7963 44.5997 42.3083 44.2637C42.8363 43.9277 43.1003 43.4717 43.1003 42.8957C43.1003 42.4957 42.9563 42.1677 42.6683 41.9117C42.3963 41.6557 41.9563 41.4237 41.3483 41.2157C40.7563 41.0077 39.9643 40.7917 38.9723 40.5677C37.7723 40.2957 36.7483 39.9597 35.9003 39.5597C35.0683 39.1437 34.4363 38.6157 34.0043 37.9757C33.5883 37.3197 33.3803 36.5117 33.3803 35.5517C33.3803 34.5917 33.6443 33.7437 34.1723 33.0077C34.7003 32.2557 35.4443 31.6717 36.4043 31.2557C37.3643 30.8237 38.5083 30.6077 39.8363 30.6077C40.9083 30.6077 41.8523 30.7517 42.6683 31.0397C43.5003 31.3277 44.1883 31.7037 44.7323 32.1677C45.2923 32.6317 45.7163 33.1277 46.0043 33.6557C46.2923 34.1837 46.4443 34.6957 46.4603 35.1917C46.4603 35.3357 46.4123 35.4637 46.3163 35.5757C46.2363 35.6717 46.1163 35.7197 45.9563 35.7197H43.2683C43.1083 35.7197 42.9643 35.6877 42.8363 35.6237C42.7083 35.5597 42.5963 35.4477 42.5003 35.2877C42.4203 34.8557 42.1403 34.4877 41.6603 34.1837C41.1963 33.8797 40.5883 33.7277 39.8363 33.7277C39.0523 33.7277 38.4283 33.8717 37.9643 34.1597C37.5163 34.4317 37.2923 34.8637 37.2923 35.4557C37.2923 35.8397 37.4123 36.1677 37.6523 36.4397C37.8923 36.6957 38.2843 36.9277 38.8283 37.1357C39.3723 37.3277 40.1083 37.5357 41.0363 37.7597C42.4283 38.0477 43.5643 38.3997 44.4443 38.8157C45.3243 39.2157 45.9723 39.7357 46.3883 40.3757C46.8043 40.9997 47.0123 41.7917 47.0123 42.7517C47.0123 43.8237 46.7163 44.7437 46.1243 45.5117C45.5323 46.2797 44.7083 46.8717 43.6523 47.2877C42.5963 47.6877 41.3723 47.8877 39.9803 47.8877ZM50.1645 47.6477C50.0045 47.6477 49.8685 47.5917 49.7565 47.4797C49.6445 47.3677 49.5885 47.2237 49.5885 47.0477V31.4477C49.5885 31.2717 49.6445 31.1277 49.7565 31.0157C49.8685 30.9037 50.0045 30.8477 50.1645 30.8477H52.9245C53.0845 30.8477 53.2205 30.9037 53.3325 31.0157C53.4445 31.1277 53.5005 31.2717 53.5005 31.4477V47.0477C53.5005 47.2237 53.4445 47.3677 53.3325 47.4797C53.2205 47.5917 53.0845 47.6477 52.9245 47.6477H50.1645ZM63.7856 47.8877C62.2816 47.8877 60.9936 47.6397 59.9216 47.1437C58.8656 46.6317 58.0416 45.8957 57.4496 44.9357C56.8736 43.9597 56.5616 42.7837 56.5136 41.4077C56.4976 40.7197 56.4896 39.9837 56.4896 39.1997C56.4896 38.4157 56.4976 37.6717 56.5136 36.9677C56.5616 35.6237 56.8736 34.4797 57.4496 33.5357C58.0416 32.5917 58.8736 31.8717 59.9456 31.3757C61.0336 30.8637 62.3136 30.6077 63.7856 30.6077C64.9696 30.6077 66.0096 30.7597 66.9056 31.0637C67.8016 31.3677 68.5536 31.7677 69.1616 32.2637C69.7856 32.7437 70.2496 33.2717 70.5536 33.8477C70.8736 34.4237 71.0416 34.9837 71.0576 35.5277C71.0576 35.6717 71.0096 35.7917 70.9136 35.8877C70.8176 35.9837 70.6896 36.0317 70.5296 36.0317H67.5536C67.3936 36.0317 67.2656 35.9997 67.1696 35.9357C67.0896 35.8717 67.0176 35.7757 66.9536 35.6477C66.8416 35.3757 66.6576 35.0877 66.4016 34.7837C66.1616 34.4797 65.8336 34.2317 65.4176 34.0397C65.0016 33.8317 64.4576 33.7277 63.7856 33.7277C62.7776 33.7277 61.9776 33.9917 61.3856 34.5197C60.8096 35.0477 60.4976 35.9037 60.4496 37.0877C60.4016 38.4637 60.4016 39.8637 60.4496 41.2877C60.4976 42.5197 60.8256 43.4077 61.4336 43.9517C62.0416 44.4957 62.8416 44.7677 63.8336 44.7677C64.4896 44.7677 65.0736 44.6557 65.5856 44.4317C66.1136 44.1917 66.5296 43.8317 66.8336 43.3517C67.1376 42.8557 67.2896 42.2237 67.2896 41.4557V40.8557H64.6736C64.5136 40.8557 64.3776 40.7997 64.2656 40.6877C64.1536 40.5597 64.0976 40.4157 64.0976 40.2557V38.7197C64.0976 38.5437 64.1536 38.3997 64.2656 38.2877C64.3776 38.1757 64.5136 38.1197 64.6736 38.1197H70.5776C70.7536 38.1197 70.8976 38.1757 71.0096 38.2877C71.1216 38.3997 71.1776 38.5437 71.1776 38.7197V41.3357C71.1776 42.7117 70.8736 43.8877 70.2656 44.8637C69.6576 45.8397 68.7936 46.5917 67.6736 47.1197C66.5696 47.6317 65.2736 47.8877 63.7856 47.8877ZM74.6567 47.6477C74.4967 47.6477 74.3607 47.5917 74.2487 47.4797C74.1367 47.3677 74.0807 47.2237 74.0807 47.0477V31.4477C74.0807 31.2717 74.1367 31.1277 74.2487 31.0157C74.3607 30.9037 74.4967 30.8477 74.6567 30.8477H76.8647C77.1047 30.8477 77.2807 30.9037 77.3927 31.0157C77.5047 31.1277 77.5767 31.2157 77.6087 31.2797L83.9927 41.2637V31.4477C83.9927 31.2717 84.0487 31.1277 84.1607 31.0157C84.2727 30.9037 84.4167 30.8477 84.5927 30.8477H87.0407C87.2167 30.8477 87.3607 30.9037 87.4727 31.0157C87.5847 31.1277 87.6407 31.2717 87.6407 31.4477V47.0477C87.6407 47.2077 87.5847 47.3517 87.4727 47.4797C87.3607 47.5917 87.2167 47.6477 87.0407 47.6477H84.8327C84.5927 47.6477 84.4167 47.5917 84.3047 47.4797C84.1927 47.3517 84.1207 47.2637 84.0887 47.2157L77.7287 37.5437V47.0477C77.7287 47.2237 77.6727 47.3677 77.5607 47.4797C77.4487 47.5917 77.3047 47.6477 77.1287 47.6477H74.6567ZM102.535 47.8877C100.999 47.8877 99.7109 47.6637 98.6709 47.2157C97.6469 46.7677 96.8709 46.1837 96.3429 45.4637C95.8149 44.7437 95.5349 43.9757 95.5029 43.1597C95.5029 43.0157 95.5509 42.8957 95.6469 42.7997C95.7429 42.7037 95.8629 42.6557 96.0069 42.6557H98.5989C98.8069 42.6557 98.9669 42.6957 99.0789 42.7757C99.1909 42.8557 99.2949 42.9597 99.3909 43.0877C99.5029 43.3757 99.6789 43.6477 99.9189 43.9037C100.175 44.1597 100.511 44.3677 100.927 44.5277C101.359 44.6877 101.895 44.7677 102.535 44.7677C103.575 44.7677 104.351 44.5997 104.863 44.2637C105.391 43.9277 105.655 43.4717 105.655 42.8957C105.655 42.4957 105.511 42.1677 105.223 41.9117C104.951 41.6557 104.511 41.4237 103.903 41.2157C103.311 41.0077 102.519 40.7917 101.527 40.5677C100.327 40.2957 99.3029 39.9597 98.4549 39.5597C97.6229 39.1437 96.9909 38.6157 96.5589 37.9757C96.1429 37.3197 95.9349 36.5117 95.9349 35.5517C95.9349 34.5917 96.1989 33.7437 96.7269 33.0077C97.2549 32.2557 97.9989 31.6717 98.9589 31.2557C99.9189 30.8237 101.063 30.6077 102.391 30.6077C103.463 30.6077 104.407 30.7517 105.223 31.0397C106.055 31.3277 106.743 31.7037 107.287 32.1677C107.847 32.6317 108.271 33.1277 108.559 33.6557C108.847 34.1837 108.999 34.6957 109.015 35.1917C109.015 35.3357 108.967 35.4637 108.871 35.5757C108.791 35.6717 108.671 35.7197 108.511 35.7197H105.823C105.663 35.7197 105.519 35.6877 105.391 35.6237C105.263 35.5597 105.151 35.4477 105.055 35.2877C104.975 34.8557 104.695 34.4877 104.215 34.1837C103.751 33.8797 103.143 33.7277 102.391 33.7277C101.607 33.7277 100.983 33.8717 100.519 34.1597C100.071 34.4317 99.8469 34.8637 99.8469 35.4557C99.8469 35.8397 99.9669 36.1677 100.207 36.4397C100.447 36.6957 100.839 36.9277 101.383 37.1357C101.927 37.3277 102.663 37.5357 103.591 37.7597C104.983 38.0477 106.119 38.3997 106.999 38.8157C107.879 39.2157 108.527 39.7357 108.943 40.3757C109.359 40.9997 109.567 41.7917 109.567 42.7517C109.567 43.8237 109.271 44.7437 108.679 45.5117C108.087 46.2797 107.263 46.8717 106.207 47.2877C105.151 47.6877 103.927 47.8877 102.535 47.8877ZM116.432 47.6477C116.256 47.6477 116.112 47.5917 116 47.4797C115.888 47.3677 115.832 47.2237 115.832 47.0477V41.7677L110.216 31.6157C110.2 31.5677 110.184 31.5277 110.168 31.4957C110.152 31.4477 110.144 31.3997 110.144 31.3517C110.144 31.2237 110.192 31.1117 110.288 31.0157C110.4 30.9037 110.52 30.8477 110.648 30.8477H113.215C113.424 30.8477 113.592 30.9037 113.72 31.0157C113.848 31.1277 113.936 31.2317 113.984 31.3277L117.752 37.9277L121.52 31.3277C121.568 31.2317 121.656 31.1277 121.784 31.0157C121.912 30.9037 122.088 30.8477 122.312 30.8477H124.856C125 30.8477 125.12 30.9037 125.216 31.0157C125.312 31.1117 125.36 31.2237 125.36 31.3517C125.36 31.3997 125.352 31.4477 125.336 31.4957C125.336 31.5277 125.32 31.5677 125.288 31.6157L119.672 41.7677V47.0477C119.672 47.2237 119.616 47.3677 119.504 47.4797C119.392 47.5917 119.248 47.6477 119.072 47.6477H116.432ZM133.051 47.8877C131.515 47.8877 130.227 47.6637 129.187 47.2157C128.163 46.7677 127.387 46.1837 126.859 45.4637C126.331 44.7437 126.051 43.9757 126.019 43.1597C126.019 43.0157 126.067 42.8957 126.163 42.7997C126.259 42.7037 126.379 42.6557 126.523 42.6557H129.115C129.323 42.6557 129.483 42.6957 129.595 42.7757C129.707 42.8557 129.811 42.9597 129.907 43.0877C130.019 43.3757 130.195 43.6477 130.435 43.9037C130.691 44.1597 131.027 44.3677 131.443 44.5277C131.875 44.6877 132.411 44.7677 133.051 44.7677C134.091 44.7677 134.867 44.5997 135.379 44.2637C135.907 43.9277 136.171 43.4717 136.171 42.8957C136.171 42.4957 136.027 42.1677 135.739 41.9117C135.467 41.6557 135.027 41.4237 134.419 41.2157C133.827 41.0077 133.035 40.7917 132.043 40.5677C130.843 40.2957 129.819 39.9597 128.971 39.5597C128.139 39.1437 127.507 38.6157 127.075 37.9757C126.659 37.3197 126.451 36.5117 126.451 35.5517C126.451 34.5917 126.715 33.7437 127.243 33.0077C127.771 32.2557 128.515 31.6717 129.475 31.2557C130.435 30.8237 131.579 30.6077 132.907 30.6077C133.979 30.6077 134.923 30.7517 135.739 31.0397C136.571 31.3277 137.259 31.7037 137.803 32.1677C138.363 32.6317 138.787 33.1277 139.075 33.6557C139.363 34.1837 139.515 34.6957 139.531 35.1917C139.531 35.3357 139.483 35.4637 139.387 35.5757C139.307 35.6717 139.187 35.7197 139.027 35.7197H136.339C136.179 35.7197 136.035 35.6877 135.907 35.6237C135.779 35.5597 135.667 35.4477 135.571 35.2877C135.491 34.8557 135.211 34.4877 134.731 34.1837C134.267 33.8797 133.659 33.7277 132.907 33.7277C132.123 33.7277 131.499 33.8717 131.035 34.1597C130.587 34.4317 130.363 34.8637 130.363 35.4557C130.363 35.8397 130.483 36.1677 130.723 36.4397C130.963 36.6957 131.355 36.9277 131.899 37.1357C132.443 37.3277 133.179 37.5357 134.107 37.7597C135.499 38.0477 136.635 38.3997 137.515 38.8157C138.395 39.2157 139.043 39.7357 139.459 40.3757C139.875 40.9997 140.083 41.7917 140.083 42.7517C140.083 43.8237 139.787 44.7437 139.195 45.5117C138.603 46.2797 137.779 46.8717 136.723 47.2877C135.667 47.6877 134.443 47.8877 133.051 47.8877ZM146.791 47.6477C146.615 47.6477 146.471 47.5917 146.359 47.4797C146.247 47.3677 146.191 47.2237 146.191 47.0477V34.2077H141.823C141.663 34.2077 141.527 34.1517 141.415 34.0397C141.303 33.9277 141.247 33.7837 141.247 33.6077V31.4477C141.247 31.2717 141.303 31.1277 141.415 31.0157C141.527 30.9037 141.663 30.8477 141.823 30.8477H154.399C154.575 30.8477 154.719 30.9037 154.831 31.0157C154.943 31.1277 154.999 31.2717 154.999 31.4477V33.6077C154.999 33.7837 154.943 33.9277 154.831 34.0397C154.719 34.1517 154.575 34.2077 154.399 34.2077H150.055V47.0477C150.055 47.2237 149.999 47.3677 149.887 47.4797C149.775 47.5917 149.631 47.6477 149.455 47.6477H146.791ZM157.883 47.6477C157.723 47.6477 157.587 47.5917 157.475 47.4797C157.363 47.3677 157.307 47.2237 157.307 47.0477V31.4477C157.307 31.2717 157.363 31.1277 157.475 31.0157C157.587 30.9037 157.723 30.8477 157.883 30.8477H168.779C168.955 30.8477 169.099 30.9037 169.211 31.0157C169.323 31.1277 169.379 31.2717 169.379 31.4477V33.3677C169.379 33.5437 169.323 33.6877 169.211 33.7997C169.099 33.9117 168.955 33.9677 168.779 33.9677H161.003V37.7117H168.251C168.427 37.7117 168.571 37.7677 168.683 37.8797C168.795 37.9917 168.851 38.1357 168.851 38.3117V40.0877C168.851 40.2477 168.795 40.3917 168.683 40.5197C168.571 40.6317 168.427 40.6877 168.251 40.6877H161.003V44.5277H168.971C169.147 44.5277 169.291 44.5837 169.403 44.6957C169.515 44.8077 169.571 44.9517 169.571 45.1277V47.0477C169.571 47.2237 169.515 47.3677 169.403 47.4797C169.291 47.5917 169.147 47.6477 168.971 47.6477H157.883ZM173.048 47.6477C172.872 47.6477 172.728 47.5917 172.616 47.4797C172.504 47.3677 172.448 47.2237 172.448 47.0477V31.4477C172.448 31.2717 172.504 31.1277 172.616 31.0157C172.728 30.9037 172.872 30.8477 173.048 30.8477H175.304C175.544 30.8477 175.72 30.9117 175.832 31.0397C175.96 31.1677 176.04 31.2637 176.072 31.3277L180.512 39.4397L184.952 31.3277C184.984 31.2637 185.056 31.1677 185.168 31.0397C185.296 30.9117 185.48 30.8477 185.72 30.8477H187.952C188.128 30.8477 188.272 30.9037 188.384 31.0157C188.496 31.1277 188.552 31.2717 188.552 31.4477V47.0477C188.552 47.2237 188.496 47.3677 188.384 47.4797C188.272 47.5917 188.128 47.6477 187.952 47.6477H185.504C185.344 47.6477 185.208 47.5917 185.096 47.4797C184.984 47.3677 184.928 47.2237 184.928 47.0477V37.3757L181.88 43.0637C181.816 43.2077 181.72 43.3357 181.592 43.4477C181.464 43.5597 181.288 43.6157 181.064 43.6157H179.936C179.728 43.6157 179.56 43.5597 179.432 43.4477C179.304 43.3357 179.2 43.2077 179.12 43.0637L176.096 37.3757V47.0477C176.096 47.2237 176.04 47.3677 175.928 47.4797C175.816 47.5917 175.672 47.6477 175.496 47.6477H173.048Z" fill="#E3E3E3"/>
</svg>
