<svg width="199" height="57" viewBox="0 0 199 57" fill="none" xmlns="http://www.w3.org/2000/svg">
<path d="M6.52 19.2C5.24 19.2 4.16667 19.0133 3.3 18.64C2.44667 18.2667 1.8 17.78 1.36 17.18C0.92 16.58 0.686667 15.94 0.66 15.26C0.66 15.14 0.7 15.04 0.78 14.96C0.86 14.88 0.96 14.84 1.08 14.84H3.24C3.41333 14.84 3.54667 14.8733 3.64 14.94C3.73333 15.0067 3.82 15.0933 3.9 15.2C3.99333 15.44 4.14 15.6667 4.34 15.88C4.55333 16.0933 4.83333 16.2667 5.18 16.4C5.54 16.5333 5.98667 16.6 6.52 16.6C7.38667 16.6 8.03333 16.46 8.46 16.18C8.9 15.9 9.12 15.52 9.12 15.04C9.12 14.7067 9 14.4333 8.76 14.22C8.53333 14.0067 8.16667 13.8133 7.66 13.64C7.16667 13.4667 6.50667 13.2867 5.68 13.1C4.68 12.8733 3.82667 12.5933 3.12 12.26C2.42667 11.9133 1.9 11.4733 1.54 10.94C1.19333 10.3933 1.02 9.72 1.02 8.92C1.02 8.12 1.24 7.41333 1.68 6.8C2.12 6.17333 2.74 5.68667 3.54 5.34C4.34 4.98 5.29333 4.8 6.4 4.8C7.29333 4.8 8.08 4.92 8.76 5.16C9.45333 5.4 10.0267 5.71333 10.48 6.1C10.9467 6.48667 11.3 6.9 11.54 7.34C11.78 7.78 11.9067 8.20667 11.92 8.62C11.92 8.74 11.88 8.84667 11.8 8.94C11.7333 9.02 11.6333 9.06 11.5 9.06H9.26C9.12667 9.06 9.00667 9.03333 8.9 8.98C8.79333 8.92667 8.7 8.83333 8.62 8.7C8.55333 8.34 8.32 8.03333 7.92 7.78C7.53333 7.52667 7.02667 7.4 6.4 7.4C5.74667 7.4 5.22667 7.52 4.84 7.76C4.46667 7.98667 4.28 8.34667 4.28 8.84C4.28 9.16 4.38 9.43333 4.58 9.66C4.78 9.87333 5.10667 10.0667 5.56 10.24C6.01333 10.4 6.62667 10.5733 7.4 10.76C8.56 11 9.50667 11.2933 10.24 11.64C10.9733 11.9733 11.5133 12.4067 11.86 12.94C12.2067 13.46 12.38 14.12 12.38 14.92C12.38 15.8133 12.1333 16.58 11.64 17.22C11.1467 17.86 10.46 18.3533 9.58 18.7C8.7 19.0333 7.68 19.2 6.52 19.2ZM17.3669 19.2C16.6602 19.2 16.0269 19.0667 15.4669 18.8C14.9069 18.52 14.4602 18.1467 14.1269 17.68C13.7935 17.2133 13.6269 16.6933 13.6269 16.12C13.6269 15.1733 14.0069 14.4267 14.7669 13.88C15.5402 13.3333 16.5535 12.96 17.8069 12.76L20.4269 12.38V12.02C20.4269 11.5 20.3069 11.1 20.0669 10.82C19.8269 10.54 19.4069 10.4 18.8069 10.4C18.3669 10.4 18.0135 10.4867 17.7469 10.66C17.4935 10.8333 17.2935 11.06 17.1469 11.34C17.0402 11.5133 16.8802 11.6 16.6669 11.6H14.7669C14.6202 11.6 14.5069 11.56 14.4269 11.48C14.3469 11.3867 14.3135 11.28 14.3269 11.16C14.3269 10.9333 14.4135 10.6667 14.5869 10.36C14.7602 10.0533 15.0269 9.75333 15.3869 9.46C15.7469 9.15333 16.2069 8.9 16.7669 8.7C17.3402 8.5 18.0269 8.4 18.8269 8.4C19.6669 8.4 20.3869 8.5 20.9869 8.7C21.5869 8.9 22.0669 9.18 22.4269 9.54C22.8002 9.9 23.0669 10.32 23.2269 10.8C23.4002 11.2667 23.4869 11.7733 23.4869 12.32V18.5C23.4869 18.6467 23.4402 18.7667 23.3469 18.86C23.2535 18.9533 23.1402 19 23.0069 19H21.0269C20.8935 19 20.7802 18.9533 20.6869 18.86C20.5935 18.7667 20.5469 18.6467 20.5469 18.5V17.76C20.3735 18.0133 20.1402 18.2533 19.8469 18.48C19.5535 18.6933 19.2002 18.8667 18.7869 19C18.3869 19.1333 17.9135 19.2 17.3669 19.2ZM18.1669 17.12C18.6069 17.12 19.0002 17.0267 19.3469 16.84C19.6935 16.6533 19.9669 16.3667 20.1669 15.98C20.3669 15.5933 20.4669 15.1067 20.4669 14.52V14.18L18.6069 14.48C17.9002 14.6 17.3802 14.78 17.0469 15.02C16.7135 15.26 16.5469 15.5533 16.5469 15.9C16.5469 16.1533 16.6202 16.3733 16.7669 16.56C16.9269 16.7333 17.1269 16.8733 17.3669 16.98C17.6202 17.0733 17.8869 17.12 18.1669 17.12ZM26.3884 19C26.2551 19 26.1351 18.9533 26.0284 18.86C25.9351 18.7667 25.8884 18.6467 25.8884 18.5V9.1C25.8884 8.95333 25.9351 8.83333 26.0284 8.74C26.1351 8.64667 26.2551 8.6 26.3884 8.6H28.3484C28.4951 8.6 28.6151 8.64667 28.7084 8.74C28.8018 8.83333 28.8484 8.95333 28.8484 9.1V9.88C29.1951 9.45333 29.6418 9.1 30.1884 8.82C30.7484 8.54 31.4151 8.4 32.1884 8.4C32.9751 8.4 33.6684 8.58 34.2684 8.94C34.8684 9.28667 35.3351 9.8 35.6684 10.48C36.0018 11.1467 36.1684 11.96 36.1684 12.92V18.5C36.1684 18.6467 36.1218 18.7667 36.0284 18.86C35.9351 18.9533 35.8151 19 35.6684 19H33.5484C33.4018 19 33.2818 18.9533 33.1884 18.86C33.0951 18.7667 33.0484 18.6467 33.0484 18.5V13.04C33.0484 12.3333 32.8751 11.7867 32.5284 11.4C32.1951 11 31.7018 10.8 31.0484 10.8C30.4218 10.8 29.9218 11 29.5484 11.4C29.1884 11.7867 29.0084 12.3333 29.0084 13.04V18.5C29.0084 18.6467 28.9618 18.7667 28.8684 18.86C28.7751 18.9533 28.6551 19 28.5084 19H26.3884ZM43.6788 19C43.5454 19 43.4321 18.9533 43.3388 18.86C43.2454 18.7667 43.1988 18.6467 43.1988 18.5V5.5C43.1988 5.35333 43.2454 5.23333 43.3388 5.14C43.4321 5.04667 43.5454 5 43.6788 5H52.6188C52.7654 5 52.8854 5.04667 52.9788 5.14C53.0721 5.23333 53.1188 5.35333 53.1188 5.5V7.22C53.1188 7.35333 53.0721 7.46667 52.9788 7.56C52.8854 7.65333 52.7654 7.7 52.6188 7.7H46.3388V11.08H52.2188C52.3654 11.08 52.4854 11.1267 52.5788 11.22C52.6721 11.3133 52.7188 11.4333 52.7188 11.58V13.28C52.7188 13.4133 52.6721 13.5267 52.5788 13.62C52.4854 13.7133 52.3654 13.76 52.2188 13.76H46.3388V18.5C46.3388 18.6467 46.2921 18.7667 46.1988 18.86C46.1054 18.9533 45.9854 19 45.8388 19H43.6788ZM55.4509 19C55.3176 19 55.1976 18.9533 55.0909 18.86C54.9976 18.7667 54.9509 18.6467 54.9509 18.5V9.1C54.9509 8.96667 54.9976 8.85333 55.0909 8.76C55.1976 8.65333 55.3176 8.6 55.4509 8.6H57.4109C57.5576 8.6 57.6776 8.65333 57.7709 8.76C57.8643 8.85333 57.9109 8.96667 57.9109 9.1V9.9C58.2443 9.48667 58.6576 9.16667 59.1509 8.94C59.6443 8.71333 60.2043 8.6 60.8309 8.6H61.6909C61.8376 8.6 61.9576 8.64667 62.0509 8.74C62.1443 8.83333 62.1909 8.95333 62.1909 9.1V10.84C62.1909 10.9733 62.1443 11.0867 62.0509 11.18C61.9576 11.2733 61.8376 11.32 61.6909 11.32H59.9509C59.3509 11.32 58.8843 11.4867 58.5509 11.82C58.2309 12.1533 58.0709 12.6133 58.0709 13.2V18.5C58.0709 18.6467 58.0176 18.7667 57.9109 18.86C57.8176 18.9533 57.7043 19 57.5709 19H55.4509ZM66.5661 19.2C65.8594 19.2 65.2261 19.0667 64.6661 18.8C64.1061 18.52 63.6594 18.1467 63.3261 17.68C62.9928 17.2133 62.8261 16.6933 62.8261 16.12C62.8261 15.1733 63.2061 14.4267 63.9661 13.88C64.7394 13.3333 65.7528 12.96 67.0061 12.76L69.6261 12.38V12.02C69.6261 11.5 69.5061 11.1 69.2661 10.82C69.0261 10.54 68.6061 10.4 68.0061 10.4C67.5661 10.4 67.2128 10.4867 66.9461 10.66C66.6928 10.8333 66.4928 11.06 66.3461 11.34C66.2394 11.5133 66.0794 11.6 65.8661 11.6H63.9661C63.8194 11.6 63.7061 11.56 63.6261 11.48C63.5461 11.3867 63.5128 11.28 63.5261 11.16C63.5261 10.9333 63.6128 10.6667 63.7861 10.36C63.9594 10.0533 64.2261 9.75333 64.5861 9.46C64.9461 9.15333 65.4061 8.9 65.9661 8.7C66.5394 8.5 67.2261 8.4 68.0261 8.4C68.8661 8.4 69.5861 8.5 70.1861 8.7C70.7861 8.9 71.2661 9.18 71.6261 9.54C71.9994 9.9 72.2661 10.32 72.4261 10.8C72.5994 11.2667 72.6861 11.7733 72.6861 12.32V18.5C72.6861 18.6467 72.6394 18.7667 72.5461 18.86C72.4528 18.9533 72.3394 19 72.2061 19H70.2261C70.0928 19 69.9794 18.9533 69.8861 18.86C69.7928 18.7667 69.7461 18.6467 69.7461 18.5V17.76C69.5728 18.0133 69.3394 18.2533 69.0461 18.48C68.7528 18.6933 68.3994 18.8667 67.9861 19C67.5861 19.1333 67.1128 19.2 66.5661 19.2ZM67.3661 17.12C67.8061 17.12 68.1994 17.0267 68.5461 16.84C68.8928 16.6533 69.1661 16.3667 69.3661 15.98C69.5661 15.5933 69.6661 15.1067 69.6661 14.52V14.18L67.8061 14.48C67.0994 14.6 66.5794 14.78 66.2461 15.02C65.9128 15.26 65.7461 15.5533 65.7461 15.9C65.7461 16.1533 65.8194 16.3733 65.9661 16.56C66.1261 16.7333 66.3261 16.8733 66.5661 16.98C66.8194 17.0733 67.0861 17.12 67.3661 17.12ZM75.5877 19C75.4543 19 75.3343 18.9533 75.2277 18.86C75.1343 18.7667 75.0877 18.6467 75.0877 18.5V9.1C75.0877 8.95333 75.1343 8.83333 75.2277 8.74C75.3343 8.64667 75.4543 8.6 75.5877 8.6H77.5477C77.6943 8.6 77.8143 8.64667 77.9077 8.74C78.001 8.83333 78.0477 8.95333 78.0477 9.1V9.88C78.3943 9.45333 78.841 9.1 79.3877 8.82C79.9477 8.54 80.6143 8.4 81.3877 8.4C82.1743 8.4 82.8677 8.58 83.4677 8.94C84.0677 9.28667 84.5343 9.8 84.8677 10.48C85.201 11.1467 85.3677 11.96 85.3677 12.92V18.5C85.3677 18.6467 85.321 18.7667 85.2277 18.86C85.1343 18.9533 85.0143 19 84.8677 19H82.7477C82.601 19 82.481 18.9533 82.3877 18.86C82.2943 18.7667 82.2477 18.6467 82.2477 18.5V13.04C82.2477 12.3333 82.0743 11.7867 81.7277 11.4C81.3943 11 80.901 10.8 80.2477 10.8C79.621 10.8 79.121 11 78.7477 11.4C78.3877 11.7867 78.2077 12.3333 78.2077 13.04V18.5C78.2077 18.6467 78.161 18.7667 78.0677 18.86C77.9743 18.9533 77.8543 19 77.7077 19H75.5877ZM92.4039 19.2C91.4172 19.2 90.5506 19.02 89.8039 18.66C89.0706 18.3 88.4906 17.78 88.0639 17.1C87.6372 16.4067 87.4039 15.58 87.3639 14.62C87.3506 14.4067 87.3439 14.14 87.3439 13.82C87.3439 13.4867 87.3506 13.2133 87.3639 13C87.4039 12.0267 87.6306 11.2 88.0439 10.52C88.4706 9.82667 89.0572 9.3 89.8039 8.94C90.5506 8.58 91.4172 8.4 92.4039 8.4C93.2839 8.4 94.0372 8.52667 94.6639 8.78C95.2906 9.02 95.8039 9.33333 96.2039 9.72C96.6039 10.0933 96.9039 10.48 97.1039 10.88C97.3039 11.28 97.4106 11.6333 97.4239 11.94C97.4372 12.0867 97.3906 12.2067 97.2839 12.3C97.1772 12.3933 97.0572 12.44 96.9239 12.44H94.7839C94.6372 12.44 94.5239 12.4067 94.4439 12.34C94.3772 12.2733 94.3106 12.1667 94.2439 12.02C94.0706 11.5533 93.8372 11.22 93.5439 11.02C93.2506 10.82 92.8839 10.72 92.4439 10.72C91.8439 10.72 91.3706 10.9133 91.0239 11.3C90.6906 11.6867 90.5106 12.2867 90.4839 13.1C90.4572 13.62 90.4572 14.0933 90.4839 14.52C90.5106 15.3467 90.6906 15.9467 91.0239 16.32C91.3706 16.6933 91.8439 16.88 92.4439 16.88C92.9106 16.88 93.2839 16.78 93.5639 16.58C93.8439 16.38 94.0706 16.0467 94.2439 15.58C94.3106 15.4333 94.3772 15.3267 94.4439 15.26C94.5239 15.1933 94.6372 15.16 94.7839 15.16H96.9239C97.0572 15.16 97.1772 15.2067 97.2839 15.3C97.3906 15.3933 97.4372 15.5133 97.4239 15.66C97.4106 15.8867 97.3439 16.1533 97.2239 16.46C97.1039 16.7667 96.9172 17.08 96.6639 17.4C96.4239 17.72 96.1106 18.02 95.7239 18.3C95.3372 18.5667 94.8639 18.7867 94.3039 18.96C93.7572 19.12 93.1239 19.2 92.4039 19.2ZM99.8455 19C99.7121 19 99.5921 18.9533 99.4855 18.86C99.3921 18.7667 99.3455 18.6467 99.3455 18.5V9.1C99.3455 8.95333 99.3921 8.83333 99.4855 8.74C99.5921 8.64667 99.7121 8.6 99.8455 8.6H101.865C101.999 8.6 102.112 8.64667 102.205 8.74C102.299 8.83333 102.345 8.95333 102.345 9.1V18.5C102.345 18.6467 102.299 18.7667 102.205 18.86C102.112 18.9533 101.999 19 101.865 19H99.8455ZM99.7855 7C99.6521 7 99.5388 6.95333 99.4455 6.86C99.3521 6.76667 99.3055 6.64667 99.3055 6.5V4.88C99.3055 4.74667 99.3521 4.63333 99.4455 4.54C99.5388 4.43333 99.6521 4.38 99.7855 4.38H101.905C102.039 4.38 102.152 4.43333 102.245 4.54C102.352 4.63333 102.405 4.74667 102.405 4.88V6.5C102.405 6.64667 102.352 6.76667 102.245 6.86C102.152 6.95333 102.039 7 101.905 7H99.7855ZM108.973 19.2C108.147 19.2 107.433 19.1067 106.833 18.92C106.247 18.72 105.767 18.48 105.393 18.2C105.033 17.92 104.76 17.64 104.573 17.36C104.4 17.0667 104.307 16.82 104.293 16.62C104.28 16.4733 104.327 16.3533 104.433 16.26C104.54 16.1667 104.647 16.12 104.753 16.12H106.693C106.747 16.12 106.787 16.1267 106.813 16.14C106.853 16.1533 106.9 16.1867 106.953 16.24C107.127 16.36 107.3 16.5 107.473 16.66C107.66 16.8067 107.88 16.9333 108.133 17.04C108.387 17.1467 108.693 17.2 109.053 17.2C109.493 17.2 109.86 17.1133 110.153 16.94C110.46 16.7533 110.613 16.4933 110.613 16.16C110.613 15.92 110.547 15.72 110.413 15.56C110.28 15.4 110.02 15.2533 109.633 15.12C109.247 14.9867 108.673 14.84 107.913 14.68C107.193 14.52 106.58 14.3067 106.073 14.04C105.567 13.7733 105.187 13.44 104.933 13.04C104.68 12.6267 104.553 12.1333 104.553 11.56C104.553 11.04 104.713 10.54 105.033 10.06C105.367 9.58 105.853 9.18667 106.493 8.88C107.133 8.56 107.933 8.4 108.893 8.4C109.627 8.4 110.267 8.49333 110.813 8.68C111.373 8.85333 111.84 9.08 112.213 9.36C112.587 9.62667 112.867 9.90667 113.053 10.2C113.253 10.48 113.36 10.7267 113.373 10.94C113.387 11.0867 113.347 11.2067 113.253 11.3C113.16 11.3933 113.053 11.44 112.933 11.44H111.153C111.087 11.44 111.027 11.4267 110.973 11.4C110.92 11.3733 110.873 11.34 110.833 11.3C110.673 11.2067 110.507 11.0867 110.333 10.94C110.173 10.7933 109.98 10.6667 109.753 10.56C109.527 10.4533 109.233 10.4 108.873 10.4C108.447 10.4 108.113 10.5 107.873 10.7C107.647 10.8867 107.533 11.1267 107.533 11.42C107.533 11.6067 107.593 11.78 107.713 11.94C107.833 12.1 108.073 12.2467 108.433 12.38C108.807 12.5133 109.38 12.6533 110.153 12.8C111.06 12.96 111.78 13.2 112.313 13.52C112.847 13.84 113.227 14.2133 113.453 14.64C113.68 15.0533 113.793 15.5 113.793 15.98C113.793 16.6067 113.607 17.1667 113.233 17.66C112.873 18.14 112.333 18.52 111.613 18.8C110.893 19.0667 110.013 19.2 108.973 19.2ZM120.373 19.2C119.386 19.2 118.519 19.02 117.773 18.66C117.039 18.3 116.459 17.78 116.033 17.1C115.606 16.4067 115.373 15.58 115.333 14.62C115.319 14.4067 115.313 14.14 115.313 13.82C115.313 13.4867 115.319 13.2133 115.333 13C115.373 12.0267 115.599 11.2 116.013 10.52C116.439 9.82667 117.026 9.3 117.773 8.94C118.519 8.58 119.386 8.4 120.373 8.4C121.253 8.4 122.006 8.52667 122.633 8.78C123.259 9.02 123.773 9.33333 124.173 9.72C124.573 10.0933 124.873 10.48 125.073 10.88C125.273 11.28 125.379 11.6333 125.393 11.94C125.406 12.0867 125.359 12.2067 125.253 12.3C125.146 12.3933 125.026 12.44 124.893 12.44H122.753C122.606 12.44 122.493 12.4067 122.413 12.34C122.346 12.2733 122.279 12.1667 122.213 12.02C122.039 11.5533 121.806 11.22 121.513 11.02C121.219 10.82 120.853 10.72 120.413 10.72C119.813 10.72 119.339 10.9133 118.993 11.3C118.659 11.6867 118.479 12.2867 118.453 13.1C118.426 13.62 118.426 14.0933 118.453 14.52C118.479 15.3467 118.659 15.9467 118.993 16.32C119.339 16.6933 119.813 16.88 120.413 16.88C120.879 16.88 121.253 16.78 121.533 16.58C121.813 16.38 122.039 16.0467 122.213 15.58C122.279 15.4333 122.346 15.3267 122.413 15.26C122.493 15.1933 122.606 15.16 122.753 15.16H124.893C125.026 15.16 125.146 15.2067 125.253 15.3C125.359 15.3933 125.406 15.5133 125.393 15.66C125.379 15.8867 125.313 16.1533 125.193 16.46C125.073 16.7667 124.886 17.08 124.633 17.4C124.393 17.72 124.079 18.02 123.693 18.3C123.306 18.5667 122.833 18.7867 122.273 18.96C121.726 19.12 121.093 19.2 120.373 19.2ZM132.094 19.2C130.988 19.2 130.061 19.02 129.314 18.66C128.568 18.2867 127.994 17.76 127.594 17.08C127.208 16.4 126.994 15.6067 126.954 14.7C126.941 14.4333 126.934 14.1333 126.934 13.8C126.934 13.4533 126.941 13.1533 126.954 12.9C126.994 11.98 127.221 11.1867 127.634 10.52C128.048 9.84 128.628 9.32 129.374 8.96C130.121 8.58667 131.028 8.4 132.094 8.4C133.148 8.4 134.048 8.58667 134.794 8.96C135.541 9.32 136.121 9.84 136.534 10.52C136.948 11.1867 137.181 11.98 137.234 12.9C137.248 13.1533 137.254 13.4533 137.254 13.8C137.254 14.1333 137.248 14.4333 137.234 14.7C137.181 15.6067 136.954 16.4 136.554 17.08C136.168 17.76 135.601 18.2867 134.854 18.66C134.108 19.02 133.188 19.2 132.094 19.2ZM132.094 16.98C132.748 16.98 133.234 16.78 133.554 16.38C133.888 15.98 134.074 15.3867 134.114 14.6C134.128 14.4 134.134 14.1333 134.134 13.8C134.134 13.4667 134.128 13.2 134.114 13C134.074 12.2267 133.888 11.64 133.554 11.24C133.234 10.8267 132.748 10.62 132.094 10.62C131.441 10.62 130.948 10.8267 130.614 11.24C130.281 11.64 130.094 12.2267 130.054 13C130.041 13.2 130.034 13.4667 130.034 13.8C130.034 14.1333 130.041 14.4 130.054 14.6C130.094 15.3867 130.281 15.98 130.614 16.38C130.948 16.78 131.441 16.98 132.094 16.98ZM2.352 47C2.192 47 2.056 46.944 1.944 46.832C1.832 46.72 1.776 46.576 1.776 46.4V30.8C1.776 30.624 1.832 30.48 1.944 30.368C2.056 30.256 2.192 30.2 2.352 30.2H8.4C10 30.2 11.336 30.456 12.408 30.968C13.48 31.464 14.296 32.2 14.856 33.176C15.432 34.136 15.736 35.328 15.768 36.752C15.8 37.456 15.816 38.072 15.816 38.6C15.816 39.128 15.8 39.736 15.768 40.424C15.72 41.912 15.424 43.144 14.88 44.12C14.336 45.096 13.536 45.824 12.48 46.304C11.44 46.768 10.12 47 8.52 47H2.352ZM5.592 43.88H8.4C9.2 43.88 9.848 43.768 10.344 43.544C10.856 43.304 11.24 42.928 11.496 42.416C11.752 41.888 11.888 41.208 11.904 40.376C11.92 39.912 11.928 39.496 11.928 39.128C11.944 38.76 11.944 38.392 11.928 38.024C11.928 37.656 11.92 37.248 11.904 36.8C11.872 35.6 11.56 34.72 10.968 34.16C10.392 33.6 9.496 33.32 8.28 33.32H5.592V43.88ZM19.3676 47C19.2076 47 19.0716 46.944 18.9596 46.832C18.8476 46.72 18.7916 46.576 18.7916 46.4V30.8C18.7916 30.624 18.8476 30.48 18.9596 30.368C19.0716 30.256 19.2076 30.2 19.3676 30.2H30.2636C30.4396 30.2 30.5836 30.256 30.6956 30.368C30.8076 30.48 30.8636 30.624 30.8636 30.8V32.72C30.8636 32.896 30.8076 33.04 30.6956 33.152C30.5836 33.264 30.4396 33.32 30.2636 33.32H22.4876V37.064H29.7356C29.9116 37.064 30.0556 37.12 30.1676 37.232C30.2796 37.344 30.3356 37.488 30.3356 37.664V39.44C30.3356 39.6 30.2796 39.744 30.1676 39.872C30.0556 39.984 29.9116 40.04 29.7356 40.04H22.4876V43.88H30.4556C30.6316 43.88 30.7756 43.936 30.8876 44.048C30.9996 44.16 31.0556 44.304 31.0556 44.48V46.4C31.0556 46.576 30.9996 46.72 30.8876 46.832C30.7756 46.944 30.6316 47 30.4556 47H19.3676ZM39.9803 47.24C38.4443 47.24 37.1563 47.016 36.1163 46.568C35.0923 46.12 34.3163 45.536 33.7883 44.816C33.2603 44.096 32.9803 43.328 32.9482 42.512C32.9482 42.368 32.9963 42.248 33.0923 42.152C33.1883 42.056 33.3083 42.008 33.4523 42.008H36.0443C36.2523 42.008 36.4123 42.048 36.5243 42.128C36.6363 42.208 36.7403 42.312 36.8363 42.44C36.9483 42.728 37.1243 43 37.3643 43.256C37.6203 43.512 37.9563 43.72 38.3723 43.88C38.8043 44.04 39.3403 44.12 39.9803 44.12C41.0203 44.12 41.7963 43.952 42.3083 43.616C42.8363 43.28 43.1003 42.824 43.1003 42.248C43.1003 41.848 42.9563 41.52 42.6683 41.264C42.3963 41.008 41.9563 40.776 41.3483 40.568C40.7563 40.36 39.9643 40.144 38.9723 39.92C37.7723 39.648 36.7483 39.312 35.9003 38.912C35.0683 38.496 34.4363 37.968 34.0043 37.328C33.5883 36.672 33.3803 35.864 33.3803 34.904C33.3803 33.944 33.6443 33.096 34.1723 32.36C34.7003 31.608 35.4443 31.024 36.4043 30.608C37.3643 30.176 38.5083 29.96 39.8363 29.96C40.9083 29.96 41.8523 30.104 42.6683 30.392C43.5003 30.68 44.1883 31.056 44.7323 31.52C45.2923 31.984 45.7163 32.48 46.0043 33.008C46.2923 33.536 46.4443 34.048 46.4603 34.544C46.4603 34.688 46.4123 34.816 46.3163 34.928C46.2363 35.024 46.1163 35.072 45.9563 35.072H43.2683C43.1083 35.072 42.9643 35.04 42.8363 34.976C42.7083 34.912 42.5963 34.8 42.5003 34.64C42.4203 34.208 42.1403 33.84 41.6603 33.536C41.1963 33.232 40.5883 33.08 39.8363 33.08C39.0523 33.08 38.4283 33.224 37.9643 33.512C37.5163 33.784 37.2923 34.216 37.2923 34.808C37.2923 35.192 37.4123 35.52 37.6523 35.792C37.8923 36.048 38.2843 36.28 38.8283 36.488C39.3723 36.68 40.1083 36.888 41.0363 37.112C42.4283 37.4 43.5643 37.752 44.4443 38.168C45.3243 38.568 45.9723 39.088 46.3883 39.728C46.8043 40.352 47.0123 41.144 47.0123 42.104C47.0123 43.176 46.7163 44.096 46.1243 44.864C45.5323 45.632 44.7083 46.224 43.6523 46.64C42.5963 47.04 41.3723 47.24 39.9803 47.24ZM50.1645 47C50.0045 47 49.8685 46.944 49.7565 46.832C49.6445 46.72 49.5885 46.576 49.5885 46.4V30.8C49.5885 30.624 49.6445 30.48 49.7565 30.368C49.8685 30.256 50.0045 30.2 50.1645 30.2H52.9245C53.0845 30.2 53.2205 30.256 53.3325 30.368C53.4445 30.48 53.5005 30.624 53.5005 30.8V46.4C53.5005 46.576 53.4445 46.72 53.3325 46.832C53.2205 46.944 53.0845 47 52.9245 47H50.1645ZM63.7856 47.24C62.2816 47.24 60.9936 46.992 59.9216 46.496C58.8656 45.984 58.0416 45.248 57.4496 44.288C56.8736 43.312 56.5616 42.136 56.5136 40.76C56.4976 40.072 56.4896 39.336 56.4896 38.552C56.4896 37.768 56.4976 37.024 56.5136 36.32C56.5616 34.976 56.8736 33.832 57.4496 32.888C58.0416 31.944 58.8736 31.224 59.9456 30.728C61.0336 30.216 62.3136 29.96 63.7856 29.96C64.9696 29.96 66.0096 30.112 66.9056 30.416C67.8016 30.72 68.5536 31.12 69.1616 31.616C69.7856 32.096 70.2496 32.624 70.5536 33.2C70.8736 33.776 71.0416 34.336 71.0576 34.88C71.0576 35.024 71.0096 35.144 70.9136 35.24C70.8176 35.336 70.6896 35.384 70.5296 35.384H67.5536C67.3936 35.384 67.2656 35.352 67.1696 35.288C67.0896 35.224 67.0176 35.128 66.9536 35C66.8416 34.728 66.6576 34.44 66.4016 34.136C66.1616 33.832 65.8336 33.584 65.4176 33.392C65.0016 33.184 64.4576 33.08 63.7856 33.08C62.7776 33.08 61.9776 33.344 61.3856 33.872C60.8096 34.4 60.4976 35.256 60.4496 36.44C60.4016 37.816 60.4016 39.216 60.4496 40.64C60.4976 41.872 60.8256 42.76 61.4336 43.304C62.0416 43.848 62.8416 44.12 63.8336 44.12C64.4896 44.12 65.0736 44.008 65.5856 43.784C66.1136 43.544 66.5296 43.184 66.8336 42.704C67.1376 42.208 67.2896 41.576 67.2896 40.808V40.208H64.6736C64.5136 40.208 64.3776 40.152 64.2656 40.04C64.1536 39.912 64.0976 39.768 64.0976 39.608V38.072C64.0976 37.896 64.1536 37.752 64.2656 37.64C64.3776 37.528 64.5136 37.472 64.6736 37.472H70.5776C70.7536 37.472 70.8976 37.528 71.0096 37.64C71.1216 37.752 71.1776 37.896 71.1776 38.072V40.688C71.1776 42.064 70.8736 43.24 70.2656 44.216C69.6576 45.192 68.7936 45.944 67.6736 46.472C66.5696 46.984 65.2736 47.24 63.7856 47.24ZM74.6567 47C74.4967 47 74.3607 46.944 74.2487 46.832C74.1367 46.72 74.0807 46.576 74.0807 46.4V30.8C74.0807 30.624 74.1367 30.48 74.2487 30.368C74.3607 30.256 74.4967 30.2 74.6567 30.2H76.8647C77.1047 30.2 77.2807 30.256 77.3927 30.368C77.5047 30.48 77.5767 30.568 77.6087 30.632L83.9927 40.616V30.8C83.9927 30.624 84.0487 30.48 84.1607 30.368C84.2727 30.256 84.4167 30.2 84.5927 30.2H87.0407C87.2167 30.2 87.3607 30.256 87.4727 30.368C87.5847 30.48 87.6407 30.624 87.6407 30.8V46.4C87.6407 46.56 87.5847 46.704 87.4727 46.832C87.3607 46.944 87.2167 47 87.0407 47H84.8327C84.5927 47 84.4167 46.944 84.3047 46.832C84.1927 46.704 84.1207 46.616 84.0887 46.568L77.7287 36.896V46.4C77.7287 46.576 77.6727 46.72 77.5607 46.832C77.4487 46.944 77.3047 47 77.1287 47H74.6567ZM102.535 47.24C100.999 47.24 99.7109 47.016 98.6709 46.568C97.6469 46.12 96.8709 45.536 96.3429 44.816C95.8149 44.096 95.5349 43.328 95.5029 42.512C95.5029 42.368 95.5509 42.248 95.6469 42.152C95.7429 42.056 95.8629 42.008 96.0069 42.008H98.5989C98.8069 42.008 98.9669 42.048 99.0789 42.128C99.1909 42.208 99.2949 42.312 99.3909 42.44C99.5029 42.728 99.6789 43 99.9189 43.256C100.175 43.512 100.511 43.72 100.927 43.88C101.359 44.04 101.895 44.12 102.535 44.12C103.575 44.12 104.351 43.952 104.863 43.616C105.391 43.28 105.655 42.824 105.655 42.248C105.655 41.848 105.511 41.52 105.223 41.264C104.951 41.008 104.511 40.776 103.903 40.568C103.311 40.36 102.519 40.144 101.527 39.92C100.327 39.648 99.3029 39.312 98.4549 38.912C97.6229 38.496 96.9909 37.968 96.5589 37.328C96.1429 36.672 95.9349 35.864 95.9349 34.904C95.9349 33.944 96.1989 33.096 96.7269 32.36C97.2549 31.608 97.9989 31.024 98.9589 30.608C99.9189 30.176 101.063 29.96 102.391 29.96C103.463 29.96 104.407 30.104 105.223 30.392C106.055 30.68 106.743 31.056 107.287 31.52C107.847 31.984 108.271 32.48 108.559 33.008C108.847 33.536 108.999 34.048 109.015 34.544C109.015 34.688 108.967 34.816 108.871 34.928C108.791 35.024 108.671 35.072 108.511 35.072H105.823C105.663 35.072 105.519 35.04 105.391 34.976C105.263 34.912 105.151 34.8 105.055 34.64C104.975 34.208 104.695 33.84 104.215 33.536C103.751 33.232 103.143 33.08 102.391 33.08C101.607 33.08 100.983 33.224 100.519 33.512C100.071 33.784 99.8469 34.216 99.8469 34.808C99.8469 35.192 99.9669 35.52 100.207 35.792C100.447 36.048 100.839 36.28 101.383 36.488C101.927 36.68 102.663 36.888 103.591 37.112C104.983 37.4 106.119 37.752 106.999 38.168C107.879 38.568 108.527 39.088 108.943 39.728C109.359 40.352 109.567 41.144 109.567 42.104C109.567 43.176 109.271 44.096 108.679 44.864C108.087 45.632 107.263 46.224 106.207 46.64C105.151 47.04 103.927 47.24 102.535 47.24ZM116.432 47C116.256 47 116.112 46.944 116 46.832C115.888 46.72 115.832 46.576 115.832 46.4V41.12L110.216 30.968C110.2 30.92 110.184 30.88 110.168 30.848C110.152 30.8 110.144 30.752 110.144 30.704C110.144 30.576 110.192 30.464 110.288 30.368C110.4 30.256 110.52 30.2 110.648 30.2H113.215C113.424 30.2 113.592 30.256 113.72 30.368C113.848 30.48 113.936 30.584 113.984 30.68L117.752 37.28L121.52 30.68C121.568 30.584 121.656 30.48 121.784 30.368C121.912 30.256 122.088 30.2 122.312 30.2H124.856C125 30.2 125.12 30.256 125.216 30.368C125.312 30.464 125.36 30.576 125.36 30.704C125.36 30.752 125.352 30.8 125.336 30.848C125.336 30.88 125.32 30.92 125.288 30.968L119.672 41.12V46.4C119.672 46.576 119.616 46.72 119.504 46.832C119.392 46.944 119.248 47 119.072 47H116.432ZM133.051 47.24C131.515 47.24 130.227 47.016 129.187 46.568C128.163 46.12 127.387 45.536 126.859 44.816C126.331 44.096 126.051 43.328 126.019 42.512C126.019 42.368 126.067 42.248 126.163 42.152C126.259 42.056 126.379 42.008 126.523 42.008H129.115C129.323 42.008 129.483 42.048 129.595 42.128C129.707 42.208 129.811 42.312 129.907 42.44C130.019 42.728 130.195 43 130.435 43.256C130.691 43.512 131.027 43.72 131.443 43.88C131.875 44.04 132.411 44.12 133.051 44.12C134.091 44.12 134.867 43.952 135.379 43.616C135.907 43.28 136.171 42.824 136.171 42.248C136.171 41.848 136.027 41.52 135.739 41.264C135.467 41.008 135.027 40.776 134.419 40.568C133.827 40.36 133.035 40.144 132.043 39.92C130.843 39.648 129.819 39.312 128.971 38.912C128.139 38.496 127.507 37.968 127.075 37.328C126.659 36.672 126.451 35.864 126.451 34.904C126.451 33.944 126.715 33.096 127.243 32.36C127.771 31.608 128.515 31.024 129.475 30.608C130.435 30.176 131.579 29.96 132.907 29.96C133.979 29.96 134.923 30.104 135.739 30.392C136.571 30.68 137.259 31.056 137.803 31.52C138.363 31.984 138.787 32.48 139.075 33.008C139.363 33.536 139.515 34.048 139.531 34.544C139.531 34.688 139.483 34.816 139.387 34.928C139.307 35.024 139.187 35.072 139.027 35.072H136.339C136.179 35.072 136.035 35.04 135.907 34.976C135.779 34.912 135.667 34.8 135.571 34.64C135.491 34.208 135.211 33.84 134.731 33.536C134.267 33.232 133.659 33.08 132.907 33.08C132.123 33.08 131.499 33.224 131.035 33.512C130.587 33.784 130.363 34.216 130.363 34.808C130.363 35.192 130.483 35.52 130.723 35.792C130.963 36.048 131.355 36.28 131.899 36.488C132.443 36.68 133.179 36.888 134.107 37.112C135.499 37.4 136.635 37.752 137.515 38.168C138.395 38.568 139.043 39.088 139.459 39.728C139.875 40.352 140.083 41.144 140.083 42.104C140.083 43.176 139.787 44.096 139.195 44.864C138.603 45.632 137.779 46.224 136.723 46.64C135.667 47.04 134.443 47.24 133.051 47.24ZM146.791 47C146.615 47 146.471 46.944 146.359 46.832C146.247 46.72 146.191 46.576 146.191 46.4V33.56H141.823C141.663 33.56 141.527 33.504 141.415 33.392C141.303 33.28 141.247 33.136 141.247 32.96V30.8C141.247 30.624 141.303 30.48 141.415 30.368C141.527 30.256 141.663 30.2 141.823 30.2H154.399C154.575 30.2 154.719 30.256 154.831 30.368C154.943 30.48 154.999 30.624 154.999 30.8V32.96C154.999 33.136 154.943 33.28 154.831 33.392C154.719 33.504 154.575 33.56 154.399 33.56H150.055V46.4C150.055 46.576 149.999 46.72 149.887 46.832C149.775 46.944 149.631 47 149.455 47H146.791ZM157.883 47C157.723 47 157.587 46.944 157.475 46.832C157.363 46.72 157.307 46.576 157.307 46.4V30.8C157.307 30.624 157.363 30.48 157.475 30.368C157.587 30.256 157.723 30.2 157.883 30.2H168.779C168.955 30.2 169.099 30.256 169.211 30.368C169.323 30.48 169.379 30.624 169.379 30.8V32.72C169.379 32.896 169.323 33.04 169.211 33.152C169.099 33.264 168.955 33.32 168.779 33.32H161.003V37.064H168.251C168.427 37.064 168.571 37.12 168.683 37.232C168.795 37.344 168.851 37.488 168.851 37.664V39.44C168.851 39.6 168.795 39.744 168.683 39.872C168.571 39.984 168.427 40.04 168.251 40.04H161.003V43.88H168.971C169.147 43.88 169.291 43.936 169.403 44.048C169.515 44.16 169.571 44.304 169.571 44.48V46.4C169.571 46.576 169.515 46.72 169.403 46.832C169.291 46.944 169.147 47 168.971 47H157.883ZM173.048 47C172.872 47 172.728 46.944 172.616 46.832C172.504 46.72 172.448 46.576 172.448 46.4V30.8C172.448 30.624 172.504 30.48 172.616 30.368C172.728 30.256 172.872 30.2 173.048 30.2H175.304C175.544 30.2 175.72 30.264 175.832 30.392C175.96 30.52 176.04 30.616 176.072 30.68L180.512 38.792L184.952 30.68C184.984 30.616 185.056 30.52 185.168 30.392C185.296 30.264 185.48 30.2 185.72 30.2H187.952C188.128 30.2 188.272 30.256 188.384 30.368C188.496 30.48 188.552 30.624 188.552 30.8V46.4C188.552 46.576 188.496 46.72 188.384 46.832C188.272 46.944 188.128 47 187.952 47H185.504C185.344 47 185.208 46.944 185.096 46.832C184.984 46.72 184.928 46.576 184.928 46.4V36.728L181.88 42.416C181.816 42.56 181.72 42.688 181.592 42.8C181.464 42.912 181.288 42.968 181.064 42.968H179.936C179.728 42.968 179.56 42.912 179.432 42.8C179.304 42.688 179.2 42.56 179.12 42.416L176.096 36.728V46.4C176.096 46.576 176.04 46.72 175.928 46.832C175.816 46.944 175.672 47 175.496 47H173.048Z" fill="#212123"/>
</svg>
