<svg viewBox="0 0 20 20"><path d="M0.36468 10.8849L6.72968 17.2499C6.83992 17.3846 6.97705 17.4947 7.13229 17.5733C7.28754 17.6519 7.45749 17.6972 7.63125 17.7063C7.80501 17.7154 7.97877 17.6882 8.14139 17.6263C8.30402 17.5644 8.45193 17.4692 8.57567 17.3469C8.69941 17.2246 8.79624 17.0777 8.85997 16.9158C8.9237 16.7539 8.95292 16.5805 8.94577 16.4066C8.93861 16.2328 8.89524 16.0623 8.81843 15.9062C8.74161 15.7501 8.63305 15.6117 8.49968 15.4999L4.26968 11.2499H18.7697C19.1012 11.2499 19.4191 11.1182 19.6536 10.8838C19.888 10.6494 20.0197 10.3314 20.0197 9.99993C20.0197 9.66841 19.888 9.35046 19.6536 9.11604C19.4191 8.88162 19.1012 8.74993 18.7697 8.74993H4.26968L8.49968 4.49993C8.6969 4.25907 8.79715 3.9533 8.78082 3.64243C8.76449 3.33157 8.63275 3.03798 8.41138 2.81912C8.19002 2.60025 7.89495 2.47186 7.58392 2.45907C7.27289 2.44627 6.96828 2.54999 6.72968 2.74993L0.36468 9.11493C0.130798 9.35009 -0.000488281 9.66826 -0.000488281 9.99993C-0.000488281 10.3316 0.130798 10.6498 0.36468 10.8849Z"/></svg>