<svg viewBox="0 0 20 20"><path d="M18 2.945C18 2.16394 17.6897 1.41487 17.1374 0.862571C16.5851 0.310276 15.8361 0 15.055 0L4.945 0C4.16394 0 3.41487 0.310276 2.86257 0.862571C2.31028 1.41487 2 2.16394 2 2.945V17.055C2.00018 17.2074 2.02902 17.3583 2.085 17.5H2V20H18V17.5H17.915C17.971 17.3583 17.9998 17.2074 18 17.055V2.945ZM11.44 17.5C11.4782 17.3924 11.4984 17.2792 11.5 17.165V14.5C11.5 14.2348 11.3946 13.9804 11.2071 13.7929C11.0196 13.6054 10.7652 13.5 10.5 13.5H9.5C9.23478 13.5 8.98043 13.6054 8.79289 13.7929C8.60536 13.9804 8.5 14.2348 8.5 14.5V17.145C8.50156 17.2592 8.52183 17.3724 8.56 17.48H4.415C4.46858 17.3446 4.49737 17.2006 4.5 17.055V2.945C4.5 2.82698 4.54688 2.71379 4.63034 2.63034C4.71379 2.54688 4.82698 2.5 4.945 2.5H15.055C15.173 2.5 15.2862 2.54688 15.3697 2.63034C15.4531 2.71379 15.5 2.82698 15.5 2.945V17.055C15.5002 17.2074 15.529 17.3583 15.585 17.5H11.44Z"/><path d="M8 4.5H7.5C6.94772 4.5 6.5 4.94772 6.5 5.5V6C6.5 6.55228 6.94772 7 7.5 7H8C8.55228 7 9 6.55228 9 6V5.5C9 4.94772 8.55228 4.5 8 4.5Z"/><path d="M12.5 4.5H12C11.4477 4.5 11 4.94772 11 5.5V6C11 6.55228 11.4477 7 12 7H12.5C13.0523 7 13.5 6.55228 13.5 6V5.5C13.5 4.94772 13.0523 4.5 12.5 4.5Z"/><path d="M8 9H7.5C6.94772 9 6.5 9.44772 6.5 10V10.5C6.5 11.0523 6.94772 11.5 7.5 11.5H8C8.55228 11.5 9 11.0523 9 10.5V10C9 9.44772 8.55228 9 8 9Z"/><path d="M12.5 9H12C11.4477 9 11 9.44772 11 10V10.5C11 11.0523 11.4477 11.5 12 11.5H12.5C13.0523 11.5 13.5 11.0523 13.5 10.5V10C13.5 9.44772 13.0523 9 12.5 9Z"/></svg>