<svg viewBox="0 0 20 20"><path d="M17.65 7.38L10.9 0.38C10.7827 0.260161 10.6427 0.16485 10.4882 0.0996133C10.3337 0.0343763 10.1677 0.000515263 10 0L3.25 0C2.91848 0 2.60054 0.131696 2.36612 0.366117C2.1317 0.600537 2 0.918479 2 1.25V18.75C2 19.0815 2.1317 19.3995 2.36612 19.6339C2.60054 19.8683 2.91848 20 3.25 20H16.75C17.0815 20 17.3995 19.8683 17.6339 19.6339C17.8683 19.3995 18 19.0815 18 18.75V8.25C18.0001 7.92567 17.8747 7.61388 17.65 7.38ZM11 4.09L14.305 7.5H11V4.09ZM4.5 17.5V2.5H8.5V8.765C8.50395 9.09391 8.63738 9.40802 8.87138 9.6392C9.10537 9.87039 9.42106 10 9.75 10H15.5V17.5H4.5Z"/></svg>