<svg viewBox="0 0 20 20">
  <path d="M10 0C8.02219 0 6.08879 0.58649 4.4443 1.6853C2.79981 2.78412 1.51809 4.34591 0.761209 6.17317C0.00433284 8.00043 -0.193701 10.0111 0.192152 11.9509C0.578004 13.8907 1.53041 15.6725 2.92894 17.0711C4.32746 18.4696 6.10929 19.422 8.0491 19.8079C9.98891 20.1937 11.9996 19.9957 13.8268 19.2388C15.6541 18.4819 17.2159 17.2002 18.3147 15.5557C19.4135 13.9112 20 11.9778 20 10C20 7.34784 18.9464 4.8043 17.0711 2.92893C15.1957 1.05357 12.6522 0 10 0V0ZM17.425 9H15.315C15.221 6.99696 14.5944 5.05524 13.5 3.375C14.5544 3.93288 15.4606 4.73423 16.1432 5.71252C16.8258 6.69082 17.2653 7.81783 17.425 9ZM9 3.43V9H6.695C6.92 6.215 7.945 4.5 9 3.43ZM9 11V16.82C7.915 15.73 6.85 13.935 6.675 11H9ZM11 16.82V11H13.325C13.15 13.935 12.085 15.73 11 16.82ZM11 9V3.43C12.055 4.5 13.08 6.215 13.305 9H11ZM6.5 3.375C5.40557 5.05524 4.77904 6.99696 4.685 9H2.575C2.73475 7.81783 3.17417 6.69082 3.8568 5.71252C4.53943 4.73423 5.44558 3.93288 6.5 3.375ZM2.575 11H4.68C4.73664 12.9349 5.27451 14.8252 6.245 16.5C5.25489 15.9232 4.40958 15.1279 3.77356 14.1747C3.13754 13.2215 2.7276 12.1357 2.575 11ZM13.755 16.5C14.7255 14.8252 15.2634 12.9349 15.32 11H17.425C17.2724 12.1357 16.8625 13.2215 16.2264 14.1747C15.5904 15.1279 14.7451 15.9232 13.755 16.5Z"/>
</svg>
