<svg viewBox="0 0 20 20"><path d="M10 6.125C9.62916 6.125 9.26665 6.23497 8.95831 6.44099C8.64996 6.64702 8.40964 6.93986 8.26773 7.28247C8.12581 7.62508 8.08868 8.00208 8.16103 8.36579C8.23338 8.72951 8.41195 9.0636 8.67417 9.32583C8.9364 9.58805 9.27049 9.76663 9.63421 9.83897C9.99792 9.91132 10.3749 9.87419 10.7175 9.73227C11.0601 9.59036 11.353 9.35004 11.559 9.04169C11.765 8.73335 11.875 8.37084 11.875 8C11.875 7.50272 11.6775 7.02581 11.3258 6.67417C10.9742 6.32254 10.4973 6.125 10 6.125Z"/><path d="M10 2.5C11.4587 2.5 12.8576 3.07946 13.8891 4.11091C14.9205 5.14236 15.5 6.54131 15.5 8C15.5 10.66 12.645 14.375 10 16.77C7.355 14.375 4.5 10.66 4.5 8C4.5 6.54131 5.07946 5.14236 6.11091 4.11091C7.14236 3.07946 8.54131 2.5 10 2.5ZM10 0C7.87827 0 5.84344 0.842855 4.34315 2.34315C2.84285 3.84344 2 5.87827 2 8C2 12.42 6.865 17.7 10 20C13.135 17.7 18 12.42 18 8C18 5.87827 17.1571 3.84344 15.6569 2.34315C14.1566 0.842855 12.1217 0 10 0V0Z"/></svg>