<svg viewBox="0 0 20 20"><path d="M19.6357 3.65022L16.3507 0.365223C16.1164 0.131648 15.7991 0.000488281 15.4682 0.000488281C15.1374 0.000488281 14.82 0.131648 14.5857 0.365223L1.36571 13.5852C1.20023 13.7493 1.08565 13.9576 1.03571 14.1852L0.0357127 18.4652C-0.00820063 18.6486 -0.0099063 18.8395 0.0307244 19.0236C0.071355 19.2076 0.153261 19.3801 0.270263 19.5279C0.387266 19.6757 0.536309 19.7951 0.70615 19.8769C0.875991 19.9587 1.06219 20.0009 1.25071 20.0002C1.34683 20.0009 1.44263 19.9892 1.53571 19.9652L5.81571 18.9652C6.04332 18.9153 6.25166 18.8007 6.41571 18.6352L19.6357 5.41522C19.8693 5.18092 20.0004 4.86357 20.0004 4.53272C20.0004 4.20188 19.8693 3.88453 19.6357 3.65022ZM15.4657 3.00022L16.9657 4.50022L15.7507 5.76522L14.2507 4.26522L15.4657 3.00022ZM4.90071 16.6152L2.90071 17.0752L3.36071 15.1002L12.4657 6.00022L13.9657 7.50022L4.90071 16.6152Z"/></svg>