<svg viewBox="0 0 20 20"><path d="M12.6498 19.9201C11.8755 19.9288 11.1072 19.7835 10.3895 19.4925C9.67193 19.2015 9.01935 18.7707 8.46979 18.2251L1.89979 11.6551C-0.500211 9.27512 -0.33521 5.25512 2.22479 2.69512L4.49979 0.445115C4.6159 0.328707 4.75384 0.23635 4.90571 0.173334C5.05757 0.110318 5.22037 0.0778809 5.38479 0.0778809C5.54921 0.0778809 5.71201 0.110318 5.86387 0.173334C6.01574 0.23635 6.15368 0.328707 6.26979 0.445115L10.4998 4.68512C10.6162 4.80123 10.7086 4.93917 10.7716 5.09103C10.8346 5.24289 10.867 5.4057 10.867 5.57012C10.867 5.73453 10.8346 5.89734 10.7716 6.0492C10.7086 6.20106 10.6162 6.339 10.4998 6.45512L8.53979 8.40012L11.7248 11.5801L13.6698 9.63512C13.9041 9.40154 14.2214 9.27038 14.5523 9.27038C14.8831 9.27038 15.2005 9.40154 15.4348 9.63512L19.6798 13.8801C19.9134 14.1144 20.0445 14.4318 20.0445 14.7626C20.0445 15.0935 19.9134 15.4108 19.6798 15.6451L17.4248 17.9001C16.1636 19.1795 14.4462 19.906 12.6498 19.9201ZM3.99979 4.46512C2.41479 6.05012 2.26979 8.46512 3.67479 9.88512L10.2348 16.4551C11.6398 17.8601 14.0748 17.7151 15.6598 16.1301L17.0248 14.7651L14.5548 12.2651L12.6098 14.2051C12.4937 14.3215 12.3557 14.4139 12.2039 14.4769C12.052 14.5399 11.8892 14.5723 11.7248 14.5723C11.5604 14.5723 11.3976 14.5399 11.2457 14.4769C11.0938 14.4139 10.9559 14.3215 10.8398 14.2051L5.88979 9.25512C5.77353 9.13943 5.68128 9.00191 5.61833 8.85046C5.55539 8.69902 5.52298 8.53662 5.52298 8.37262C5.52298 8.20861 5.55539 8.04621 5.61833 7.89477C5.68128 7.74332 5.77353 7.6058 5.88979 7.49012L7.83479 5.54512L5.35979 3.09512L3.99979 4.46512Z"/></svg>