<svg viewBox="0 0 20 20" fill="currentcolor">
  <path d="M19.635 9.11493L13.27 2.74993C13.0314 2.54999 12.7268 2.44627 12.4158 2.45907C12.1047 2.47186 11.8097 2.60025 11.5883 2.81912C11.3669 3.03798 11.2352 3.33157 11.2189 3.64243C11.2025 3.9533 11.3028 4.25907 11.5 4.49993L15.73 8.72993H1.25C0.918479 8.72993 0.600537 8.86162 0.366117 9.09604C0.131696 9.33046 0 9.64841 0 9.97993C0 10.3114 0.131696 10.6294 0.366117 10.8638C0.600537 11.0982 0.918479 11.2299 1.25 11.2299H15.75L11.5 15.4999C11.2653 15.7346 11.1334 16.053 11.1334 16.3849C11.1334 16.7169 11.2653 17.0352 11.5 17.2699C11.7347 17.5046 12.0531 17.6365 12.385 17.6365C12.7169 17.6365 13.0353 17.5046 13.27 17.2699L19.635 10.8849C19.8689 10.6498 20.0002 10.3316 20.0002 9.99993C20.0002 9.66826 19.8689 9.35009 19.635 9.11493Z"/>
</svg>
