<svg viewBox="0 0 20 20" fill="currentcolor">
  <path d="M13.2501 18.5001C13.0858 18.5007 12.923 18.4687 12.7711 18.4061C12.6192 18.3434 12.4812 18.2513 12.3651 18.1351L4.86508 10.6351C4.63241 10.3993 4.50195 10.0814 4.50195 9.75011C4.50195 9.41885 4.63241 9.10091 4.86508 8.86511L12.3651 1.36511C12.5998 1.1304 12.9181 0.998535 13.2501 0.998535C13.582 0.998535 13.9004 1.1304 14.1351 1.36511C14.3698 1.59983 14.5017 1.91817 14.5017 2.25011C14.5017 2.58205 14.3698 2.9004 14.1351 3.13511L7.50008 9.75511L14.1351 16.3701C14.3678 16.6059 14.4982 16.9238 14.4982 17.2551C14.4982 17.5864 14.3678 17.9043 14.1351 18.1401C14.0185 18.2554 13.8804 18.3466 13.7285 18.4084C13.5766 18.4702 13.414 18.5013 13.2501 18.5001Z"/>
</svg>
