<svg viewBox="0 0 20 20" fill="currentcolor">
  <path d="M17.4601 14.755C17.2958 14.7555 17.133 14.7236 16.9811 14.6609C16.8292 14.5983 16.6912 14.5062 16.5751 14.39L9.96008 7.77497L3.34508 14.39C3.22886 14.5062 3.09088 14.5984 2.93903 14.6613C2.78719 14.7242 2.62443 14.7565 2.46008 14.7565C2.12814 14.7565 1.80979 14.6247 1.57508 14.39C1.34036 14.1553 1.2085 13.8369 1.2085 13.505C1.2085 13.173 1.34036 12.8547 1.57508 12.62L9.07508 5.11997C9.31087 4.88729 9.62881 4.75684 9.96008 4.75684C10.2913 4.75684 10.6093 4.88729 10.8451 5.11997L18.3451 12.62C18.5777 12.8558 18.7082 13.1737 18.7082 13.505C18.7082 13.8362 18.5777 14.1542 18.3451 14.39C18.2289 14.5062 18.091 14.5983 17.9391 14.6609C17.7872 14.7236 17.6244 14.7555 17.4601 14.755Z"/>
</svg>
