<svg viewBox="0 0 20 20" fill="currentcolor">
  <path d="M19.385 17.615L13.605 11.84C14.6951 10.3074 15.1695 8.42118 14.9343 6.55522C14.6991 4.68927 13.7714 2.97978 12.3352 1.76559C10.8989 0.5514 9.05887 -0.0788641 7.17979 -0.000280625C5.30071 0.0783029 3.51974 0.859998 2.18987 2.18987C0.859998 3.51974 0.0783029 5.30071 -0.000280625 7.17979C-0.0788641 9.05887 0.5514 10.8989 1.76559 12.3352C2.97978 13.7714 4.68927 14.6991 6.55522 14.9343C8.42118 15.1695 10.3074 14.6951 11.84 13.605L17.615 19.385C17.8502 19.6189 18.1684 19.7502 18.5 19.7502C18.8317 19.7502 19.1499 19.6189 19.385 19.385C19.6177 19.1492 19.7482 18.8313 19.7482 18.5C19.7482 18.1688 19.6177 17.8508 19.385 17.615ZM2.50003 7.50003C2.50003 6.51112 2.79327 5.54442 3.34268 4.72218C3.89209 3.89993 4.67298 3.25907 5.58661 2.88063C6.50024 2.50219 7.50558 2.40318 8.47548 2.5961C9.44538 2.78903 10.3363 3.26523 11.0356 3.96449C11.7348 4.66376 12.211 5.55467 12.404 6.52458C12.5969 7.49448 12.4979 8.49981 12.1194 9.41345C11.741 10.3271 11.1001 11.108 10.2779 11.6574C9.45563 12.2068 8.48893 12.5 7.50003 12.5C6.17395 12.5 4.90218 11.9732 3.96449 11.0356C3.02681 10.0979 2.50003 8.82611 2.50003 7.50003Z"/>
</svg>
